<svg id="Capa_1" fill="#fff" enable-background="new 0 0 512 512" height="512" viewBox="0 0 512 512" width="512" xmlns="http://www.w3.org/2000/svg"><g><g><path d="m349.186 467.449h-186.373c-4.142 0-7.5-3.358-7.5-7.5s3.358-7.5 7.5-7.5h186.373c4.143 0 7.5 3.358 7.5 7.5s-3.357 7.5-7.5 7.5z"/></g><g><path d="m473.44 324.87c4.143 0 7.5-3.358 7.5-7.5v-123.49c0-7.666-5.69-7.547-15.54-7.5v-132.28c0-4.142-3.357-7.5-7.5-7.5h-79.69c-4.143 0-7.5 3.358-7.5 7.5s3.357 7.5 7.5 7.5h72.19v124.78h-16.06l.003-85.513c0-4.142-3.357-7.5-7.5-7.5h-341.686c-4.142 0-7.5 3.358-7.5 7.5l.002 85.513h-16.059v-171.38h144.703l44.393 44.403c1.406 1.407 3.314 2.197 5.304 2.197h89.53c4.143 0 7.5-3.358 7.5-7.5s-3.357-7.5-7.5-7.5h-86.423l-44.393-44.403c-1.407-1.406-3.315-2.197-5.304-2.197h-155.31c-4.142 0-7.5 3.358-7.5 7.5v178.88c-8.836.112-15.54-.166-15.54 7.5v310.62c0 4.142 3.358 7.5 7.5 7.5h434.88c4.143 0 7.5-3.358 7.5-7.5v-154.45c0-4.142-3.357-7.5-7.5-7.5s-7.5 3.358-7.5 7.5v146.95h-419.88v-295.62h87.73c4.142 0 7.5-3.358 7.5-7.5s-3.358-7.5-7.5-7.5h-41.13v-16.07h326.68v16.07h-252.87c-4.142 0-7.5 3.358-7.5 7.5s3.358 7.5 7.5 7.5h299.47v115.99c0 4.142 3.358 7.5 7.5 7.5zm-380.783-216.503h326.685v15.853h-326.685zm0 46.916v-15.854h326.685v15.854z"/><path d="m155.313 333.893c0 55.519 45.168 100.687 100.687 100.687 54.537 0 100.687-46.005 100.687-100.687 0-55.519-45.168-100.687-100.687-100.687s-100.687 45.168-100.687 100.687zm155.118 66.128c-31.066 25.616-78.023 25.579-109.056-.164v-33.179c0-2.941 2.138-5.614 5.339-6.705l33.205-8.372h31.968l33.204 8.372c3.202 1.09 5.34 3.764 5.34 6.705zm-77.993-86.767v-10.637c0-12.875 10.57-23.349 23.562-23.349s23.562 10.475 23.562 23.349v10.637c0 12.856-10.539 23.317-23.504 23.348h-.116c-12.966-.031-23.504-10.492-23.504-23.348zm109.248 20.639c0 18.706-6.043 36.019-16.255 50.125v-17.34c0-9.562-6.424-18.025-15.983-21.062-.145-.046-.29-.087-.437-.125l-24.707-6.229c6.361-6.841 10.257-15.979 10.257-26.01v-10.637c0-21.146-17.299-38.349-38.562-38.349s-38.562 17.203-38.562 38.349v10.637c0 10.01 3.881 19.134 10.22 25.97l-24.862 6.268c-.147.037-.292.079-.437.124-9.561 3.036-15.984 11.5-15.984 21.062v17.068c-10.094-14.057-16.062-31.266-16.062-49.854 0-47.248 38.439-85.687 85.687-85.687 47.249.003 85.687 38.442 85.687 85.69z"/></g></g></svg>