<svg height="512pt" viewBox="0 0 512 512" width="512pt" xmlns="http://www.w3.org/2000/svg" fill="#be9334"><path d="m484.898438 416.261719v-263.75h-72.558594v-152.511719h-312.679688v152.511719h-72.558594v263.75h-27.101562v53.761719c0 23.144531 18.832031 41.976562 41.976562 41.976562h428.046876c23.144531 0 41.976562-18.832031 41.976562-41.976562v-53.761719zm-427.796876-233.75h42.558594v177.488281h30v-330h252.679688v330h30v-177.488281h42.558594v233.75h-172.898438v10.25h-52v-10.25h-172.898438zm424.898438 287.511719c0 6.605468-5.371094 11.976562-11.976562 11.976562h-428.046876c-6.605468 0-11.976562-5.371094-11.976562-11.976562v-23.761719h170v10.25h112v-10.25h170zm0 0"/><path d="m180 76h152v30h-152zm0 0"/><path d="m180 138h152v30h-152zm0 0"/><path d="m180 200h152v30h-152zm0 0"/><path d="m180 262h152v30h-152zm0 0"/></svg>