<?xml version="1.0" standalone="no"?>
<!DOCTYPE svg PUBLIC "-//W3C//DTD SVG 1.1//EN" "http://www.w3.org/Graphics/SVG/1.1/DTD/svg11.dtd">
<svg xmlns="http://www.w3.org/2000/svg">
<metadata>Copyright (C) 2021 by original authors @ fontello.com</metadata>
<defs>
<font id="productfont" horiz-adv-x="1000" >
<font-face font-family="productfont" font-weight="400" font-stretch="normal" units-per-em="1000" ascent="850" descent="-150" />
<missing-glyph horiz-adv-x="1000" />
<glyph glyph-name="language" unicode="&#xe800;" d="M753 109l-41 81-41-81z m159 317h-41v88c0 8-4 16-10 22s-14 8-23 7c-4 0-109-12-161-117h-42v-64c0-81-66-147-147-147h-64v-277c0-49 39-88 88-88h400c49 0 88 39 88 88v400c0 49-39 88-88 88z m-344-392l118 235c5 10 15 16 26 16s21-6 26-16l118-235c7-15 1-32-13-40s-32-1-40 13l-21 43h-140l-21-43c-6-10-16-16-27-16-4 0-8 1-13 3-14 8-20 25-13 40z m-252 569h-56c4-29 13-53 28-73 15 20 24 44 28 73z m172-329c49 0 88 39 88 88v400c0 49-39 88-88 88h-400c-49 0-88-39-88-88v-400c0-49 39-88 88-88h41v-88c0-8 4-16 10-22 5-4 12-7 20-7 1 0 2 0 3 0 4 1 109 12 161 117z m-184 168c-5 3-11 6-16 9-5-3-10-6-16-9-50-27-99-27-102-27-16 0-29 13-29 29s13 30 29 30c1 0 37 0 73 19-21 26-37 62-42 110h-31c-16 0-29 13-29 30s13 29 29 29h89v18c0 16 13 29 29 29s29-13 29-29v-18h89c16 0 29-13 29-29s-13-30-29-30h-31c-5-48-21-84-42-110 36-19 72-19 73-19 16 0 29-13 29-30s-13-29-29-29c-2 0-52 0-102 27z m410 240c6-5 13-8 21-8s15 3 21 8c11 12 11 30 0 42l-9 8c108-6 194-96 194-205 0-16 13-30 29-30s29 14 29 30c0 142-112 258-252 264l9 9c11 11 11 30 0 41-12 12-30 12-42 0l-59-58c-11-12-11-30 0-42z m-429-664c-11 12-30 12-41 0s-12-30 0-41l8-9c-108 7-193 97-193 206 0 16-13 29-30 29s-29-13-29-29c0-142 112-258 253-264l-9-9c-12-12-12-30 0-42 6-6 13-8 21-8s15 2 20 8l59 59c12 11 12 30 0 41z" horiz-adv-x="1000" />

<glyph glyph-name="involved" unicode="&#xe801;" d="M1000 622v-303c0 0-65-13-78-14-13-2-55-15-86 14-46 44-212 210-212 210s-29 28-75 3c-42-22-105-54-131-67-49-26-90 15-90 47 0 25 15 41 37 54 60 36 185 106 238 134 32 17 54 18 98-18 54-46 102-87 102-87s15-13 40-8c61 13 157 35 157 35z m-661-513c8 21 6 44-10 60-14 14-34 17-53 13 5 19 2 40-12 54-14 14-34 18-53 13 5 20 2 40-12 54-21 23-59 22-84-2-25-24-40-67-18-92 22-25 47-10 66-5-5-19-21-37-2-62 20-25 48-10 67-6-5-19-21-38-2-61 19-24 51-11 71-5-8-20-25-43-3-67 22-26 73-14 98 10 25 23 27 61 5 83-15 16-37 19-58 13z m453 157c-179 180-95 95-192 192 0 0-29 29-67 12-27-12-61-28-87-40-29-15-49-19-59-19-55 0-100 44-100 100 0 35 19 67 47 84 40 28 132 77 132 77s-28 35-89 35c-61 0-189-84-189-84s-37-23-88-2l-100 35v-347c0 0 29-8 54-18 6 16 15 31 28 44 43 40 113 41 151 1 12-12 20-27 24-43 16-4 30-13 41-25 12-12 20-26 24-42 16-5 30-13 41-25 13-13 21-29 25-46 17-5 31-14 43-26 23-24 32-56 27-87 0 0 0 0 0 0 0-1 14-16 23-25 17-17 45-17 62 0 17 17 17 45 0 62-1 1-62 65-57 69 5 5 83-76 84-77 17-17 45-17 62 0 18 17 18 45 0 62 0 1-4 4-5 6 0 0-77 68-71 74 6 6 101-83 101-83 18-16 44-16 61 1 16 16 16 41 2 59 0 1-73 77-67 82 5 6 77-68 78-68 17-17 44-17 62 0 17 17 17 45 0 62-1 0-1 0-1 0z" horiz-adv-x="1000" />

<glyph glyph-name="nearme" unicode="&#xe802;" d="M501 850h-2c-172 0-313-140-313-313 0-113 52-263 153-444 76-134 152-237 153-239 2-2 5-4 9-4 0 0 0 0 0 0 4 0 7 2 9 5 1 1 77 116 152 256 101 189 152 332 152 426 0 173-141 313-313 313z m144-321c0-80-65-145-145-145-80 0-145 65-145 145s65 146 145 146c80 0 145-66 145-146z" horiz-adv-x="1000" />

<glyph glyph-name="login" unicode="&#xe803;" d="M854 475h-62v83c0 161-131 292-292 292s-292-131-292-292v-83h-62c-12 0-21-9-21-21v-521c0-46 37-83 83-83h584c46 0 83 37 83 83v521c0 12-9 21-21 21z m-292-435c1-6-1-12-5-16-4-5-9-7-15-7h-84c-6 0-11 2-15 7-4 4-6 10-5 16l13 118c-22 16-34 40-34 67 0 46 37 83 83 83s83-37 83-83c0-27-12-51-34-67l13-118z m105 435h-334v83c0 92 75 167 167 167s167-75 167-167v-83z" horiz-adv-x="1000" />

<glyph glyph-name="settings" unicode="&#xe804;" d="M970 240l-92 72c1 11 2 24 2 38 0 14-1 27-2 38l92 72c17 13 22 37 11 57l-96 166c-10 18-32 28-55 19l-108-43c-21 15-43 28-65 38l-17 115c-3 22-22 38-44 38h-192c-22 0-41-16-44-38l-16-115c-22-10-44-23-65-38l-109 43c-20 8-45 0-55-19l-96-166c-11-19-6-44 11-57l92-72c-1-14-2-26-2-38s1-24 2-38l-92-72c-17-13-22-37-11-57l96-165c10-19 32-29 55-20l109 43c20-15 42-27 65-38l16-115c3-22 22-38 44-38h192c22 0 41 16 44 38l17 115c21 10 43 23 65 38l108-43c6-3 11-4 17-4 16 0 31 9 38 23l96 166c11 20 6 44-11 57z m-470-57c-92 0-167 75-167 167s75 167 167 167 167-75 167-167-75-167-167-167z" horiz-adv-x="1000" />

<glyph glyph-name="report" unicode="&#xe805;" d="M980 121l-350 607c-58 101-202 101-259 0l-351-607c-57-100 14-224 130-224h699c116 0 188 125 131 224z m-480-90c-30 0-56 26-56 56s26 56 56 56c31 0 56-25 55-57 1-29-26-55-55-55z m51 361c-3-43-5-86-8-130-1-14-1-26-1-40-1-23-19-41-42-41s-41 17-42 40c-4 67-8 133-11 200-2 18-3 36-4 54 0 29 16 53 43 61 27 6 53-7 65-32 4-9 5-18 5-28-1-28-4-56-5-84z" horiz-adv-x="1000" />

<glyph glyph-name="chat" unicode="&#xe806;" d="M930 536h-28v-302c0-46-27-89-82-89h-536v-14c0-42 48-83 96-83h410l157-93-23 93h6c48 0 70 41 70 83v333c0 41-22 72-70 72z m-190 209h-622c-55 0-118-49-118-96v-377c0-43 53-75 105-79l-34-127 214 126h455c55 0 106 33 106 80v305 72c0 47-51 96-106 96z m-527-319c-31 0-56 25-56 56s25 57 56 57c31 0 56-26 56-57s-25-56-56-56z m210 0c-31 0-56 25-56 56s25 57 56 57 56-26 56-57-25-56-56-56z m210 0c-31 0-56 25-56 56s25 57 56 57c31 0 56-26 56-57s-25-56-56-56z" horiz-adv-x="1000" />

<glyph glyph-name="information" unicode="&#xe807;" d="M286 547c9 9 9 25 0 35-10 10-26 10-36 0-10-10-10-26 0-35 10-10 26-10 36 0z m644 69c-16 54-49 101-94 135-94 73-180 104-281 99-57-4-113-12-168-25-73-14-125-39-160-76-28-30-50-65-64-104-6-18-11-36-15-54l-1-7c-5-16-10-31-18-46-3-8-7-16-10-23-1-4-2-9-2-13 0-5 7-12 14-18 15-11 25-27 27-45-1-8-3-17-7-24-23-47-50-92-82-133-14-17-17-23-17-26 4-3 7-6 11-8 5-4 10-6 15-9 15-8 36-18 40-40 3-14 1-28-5-40-3-7-6-12-9-17-1-2-2-4-2-5 7-6 17-14 21-17 4-3 7-7 7-12 1-5 0-9-3-13-3-4-5-7-7-11 1-1 3-2 4-3 16-6 28-20 33-36 2-13 2-26-2-38-1-4-2-8-2-11-1-11 0-22 4-32 4-17 20-27 37-24 52 13 103 28 153 46l1 0c17 6 33 12 45 16 14 5 25 9 30 11 74 23 89 50 89 68 0 10 7 18 17 18 10 1 18-7 19-17 1-45-38-79-114-104-5-1-15-5-29-9-4-2-8-3-13-5 29-33 51-72 63-114h407c0 0-1 1-1 1-6 8-12 16-16 25-9 18-16 37-22 56-11 37-19 74-23 112-7 60 2 120 26 175 15 30 32 58 53 84 10 14 21 28 30 43 25 38 38 83 39 128 1 48-5 96-18 142z m-746-64c-4 3-5 8-5 12 0 5 1 10 5 13 3 3 8 5 12 5h14c1 4 3 7 4 11l-9 9c-5 5-7 11-5 17 2 7 7 11 13 13 6 2 12 0 17-5l10-9c3 2 6 3 10 4v14c0 10 8 18 18 18 10 0 18-8 18-18v-14c3-1 7-2 10-4l10 9c4 5 11 7 17 5 6-2 11-6 13-13 1-6 0-12-5-17l-10-9c2-4 4-7 5-11h13c10 0 18-8 18-18 0-10-8-18-18-18h-13c-1-3-3-7-5-10l10-10c7-7 7-18 0-25-7-7-18-7-25 0l-10 10c-3-2-7-3-10-4v-14c0-10-8-18-18-18-10 0-18 8-18 18v14c-4 1-7 2-10 4l-10-10c-7-7-18-7-25 0-7 7-7 18 0 25l9 10c-1 3-3 7-4 10h-14c-4 0-9 2-12 6z m209-220h-21c-1-6-4-12-7-18l14-14c5-5 7-12 5-18-2-6-6-11-13-12s-12 0-17 4l-14 15c-6-4-12-6-19-8v-20c0-10-8-18-17-18-10 0-18 8-18 18v20c-7 2-13 4-18 8l-15-15c-4-4-11-6-17-4-6 1-11 6-13 12s0 13 5 18l14 14c-3 6-6 12-7 18h-21c-10 0-18 8-18 18 0 10 8 18 18 18h21c1 6 4 12 7 18l-14 15c-5 4-6 11-5 17s7 11 13 12c6 2 13 0 17-4l15-15c5 4 11 6 18 8v20c0 10 8 18 18 18 9 0 17-8 17-18v-20c7-2 13-4 19-8l14 15c5 4 11 6 17 4s11-6 13-12c2-6 0-13-5-17l-14-15c3-6 6-12 7-18h21c10 0 18-8 18-18 0-10-8-18-18-18z m496 161c-2-9-9-15-18-15h-37c-4-14-9-27-16-40l26-26c6-6 7-16 2-23-17-25-39-46-63-63-7-5-17-4-23 2l-26 26c-13-7-27-13-41-17v-37c0-9-6-16-14-17-30-6-60-6-90 0-8 1-14 8-14 17v37c-14 4-28 10-41 17l-26-26c-6-6-16-7-23-2-24 17-46 38-63 63-5 7-4 17 2 23l26 26c-7 13-12 26-16 40h-37c-9 0-17 6-18 15-5 29-5 60 0 89 1 9 9 15 18 15h37c4 14 9 27 16 40l-26 26c-6 7-7 16-2 23 17 25 39 46 63 63 7 5 17 5 23-2l26-26c13 7 27 13 41 17v37c0 9 6 16 14 18 30 5 60 5 90 0 8-2 14-9 14-18v-37c14-4 28-10 41-17l26 26c6 7 16 7 23 2 24-17 46-38 63-63 5-7 4-16-2-23l-26-26c7-13 12-26 16-40h37c9 0 16-6 18-15 5-29 5-60 0-89z m-69 68c-8 0-15 6-17 14-4 20-12 39-23 55-4 7-3 17 3 23l25 25c-10 12-22 23-34 33l-25-25c-6-6-15-7-22-2-17 11-36 18-55 23-9 1-14 9-14 17v35c-16 2-32 2-48 0v-35c0-8-6-16-14-17-19-5-38-12-55-23-7-5-16-4-22 2l-25 25c-13-10-24-21-34-33l25-25c6-6 7-16 3-23-11-16-19-35-23-55-2-8-9-14-18-14h-35c-2-16-2-31 0-47h35c9 0 16-6 18-14 4-20 12-38 23-55 4-7 3-17-3-23l-25-25c10-12 21-23 34-33l25 25c6 6 15 7 22 2 17-11 36-18 55-23 8-1 14-9 14-17v-35c16-2 32-2 48 0v35c0 8 5 16 14 17 19 5 38 12 55 23 7 5 16 4 22-2l25-25c12 10 24 21 34 33l-25 25c-6 6-7 16-3 23 11 17 19 35 23 55 2 8 9 14 17 14h36c2 16 2 31 0 47h-36z m-186-140c-64 0-116 52-116 117 0 64 52 116 116 116 64 0 116-52 116-116 0-65-52-116-116-117z" horiz-adv-x="1000" />

<glyph glyph-name="tos" unicode="&#xe808;" d="M715 394c1 0 3 0 5 0l0 0c10-1 19-1 28-2v340c0 65-53 118-118 118h-512c-65 0-118-53-118-118v-679c0-65 53-118 118-118h342c-30 48-45 102-45 159 0 165 134 300 300 300z m-292 263h175c16 0 29-13 29-29 0-16-13-29-29-29h-175c-16 0-29 13-29 29 0 16 13 29 29 29z m0-117h175c16 0 29-13 29-29s-13-29-29-29h-175c-16 0-29 13-29 29s13 29 29 29z m-98-412h-175c-16 0-29 13-29 29 0 17 13 30 29 30h175c16 0 29-13 29-30 0-16-13-29-29-29z m0 119h-175c-16 0-29 13-29 30 0 16 13 29 29 29h175c16 0 29-13 29-29 0-17-13-30-29-30z m0 117h-175c-16 0-29 14-29 30 0 16 13 29 29 29h175c16 0 29-13 29-29 0-16-13-30-29-30z m0 118h-175c-16 0-29 13-29 29s13 29 29 29h175c16 0 29-13 29-29s-13-29-29-29z m0 117h-175c-16 0-29 13-29 29 0 16 13 29 29 29h175c16 0 29-13 29-29 0-16-13-29-29-29z m69-205c0 16 13 29 29 29h84c17 0 30-13 30-29 0-16-13-30-30-30h-84c-16 0-29 14-29 30z m0 0m494-130c-45 46-105 72-169 73l0 0c-2 0-3 0-4 0-134 0-243-109-243-243 0-54 16-105 48-147 47-62 118-97 195-97 134 0 243 109 243 244 0 64-25 124-70 170z m-69-131l-93-116c-6-7-14-11-23-11-6 0-12 2-17 6l-69 50c-14 10-17 28-7 41 9 13 28 16 41 7l47-34 75 94c10 12 29 14 41 4 13-10 15-28 5-41z m0 0" horiz-adv-x="1000" />

<glyph glyph-name="tracing" unicode="&#xe809;" d="M358 441h143 142c16 0 28 12 28 28v31c0 80-64 150-151 150 46 9 81 49 81 98 0 56-45 101-100 101s-101-45-101-101c0-49 35-89 81-98-87 0-151-70-151-150v-31c0-16 13-28 28-28z m-232-79c2 0 4 0 5 0 14 0 27 10 29 24 7 40 21 78 41 115 19 35 42 66 70 93 12 12 12 30 1 42-11 12-30 12-41 1-32-31-60-68-82-108-22-42-38-87-46-133-3-16 7-31 23-34z m675 139c19-37 33-75 40-115 3-14 15-24 29-24 2 0 3 0 5 0 16 3 27 18 24 34-9 46-24 91-47 133-22 40-49 77-82 108-11 11-30 11-41-1-11-12-11-30 1-42 28-27 52-58 71-93z m-182-363c-38-13-78-19-118-19-1 0-1 0-2 0-40 0-79 6-116 18-15 4-32-4-37-20s4-32 19-36c43-14 88-21 134-21h2c47 0 92 8 136 22 15 5 24 22 19 37-5 15-22 24-37 19z m-429-78c46 9 81 50 81 99 0 55-45 100-100 100s-101-45-101-100c0-49 35-90 81-99-87 0-151-70-151-150v-31c0-15 13-28 28-28h143 142c16 0 28 13 28 28v31c0 80-63 150-151 150z m659 0c46 9 81 50 81 99 0 55-45 100-101 100-55 0-100-45-100-100 0-49 35-90 81-99-87 0-151-70-151-150v-31c0-15 12-28 28-28h142 143c15 0 28 13 28 28v31c0 80-64 150-151 150z" horiz-adv-x="1000" />

<glyph glyph-name="calendar" unicode="&#xe80a;" d="M735 751v-87h-58v87h-412v-87h-59v87h-206v-146h941v146z m-529 88h59v-88h-59z m471 0h58v-88h-58z m-124-527c0 45-37 82-82 82s-82-37-82-82v-106l-43-72h250l-43 72z m-553 234v-627h941v627z m195-457l-49-32c-37 56-56 121-56 189s19 132 56 188l49-32c-30-46-47-100-47-156s17-111 47-157z m478-13h-173v-61h-59v61h-172v44l61 102v90c0 78 63 141 141 141s140-63 140-141v-90l62-102z m122-19l-49 32c31 46 47 101 47 157s-16 110-47 156l49 32c37-56 57-121 57-188s-20-133-57-189z" horiz-adv-x="1000" />

<glyph glyph-name="sos" unicode="&#xe80b;" d="M510 239h-50c-14 0-26-12-26-26v-145c0-15 12-26 26-26h50c14 0 26 11 26 26v145c0 14-12 26-26 26z m425 251l-431 353c-11 9-27 9-38 0l-431-353c-7-6-11-14-11-23v-558c0-16 13-29 29-29h864c16 0 29 13 29 29v558c0 9-4 17-11 23z m-722-321h33c51 0 93-41 93-93 0-51-42-93-93-93h-39c-48 0-87 39-87 87 0 16 13 29 29 29 16 0 29-13 29-29 0-16 13-28 29-28h39c19 0 35 15 35 34 0 19-16 35-35 35h-33c-51 0-93 42-93 93 0 51 42 93 93 93h41c47 0 85-38 85-85 0-17-13-30-29-30-16 0-29 13-29 30 0 15-12 27-27 27h-41c-19 0-35-16-35-35 0-19 16-35 35-35z m382-101c0-47-38-85-85-85h-50c-47 0-85 38-85 85v145c0 46 38 84 85 84h50c47 0 85-38 85-84v-145z m-158 325c0 16 14 29 30 29h36c16 0 30-13 30-29 0-16-14-29-30-29h-36c-16 0-30 13-30 29z m155 67c-10-12-29-13-41-2-36 33-96 33-132 0-12-11-31-10-41 2-11 12-10 30 2 41 28 26 65 40 105 40s77-14 105-40c12-11 13-29 2-41z m15 88c-67 61-177 61-244 0-12-11-31-10-42 2-10 12-10 30 2 41 44 40 101 61 162 61s118-21 162-61c12-11 12-29 2-41-11-12-30-13-42-2z m117-379h33c51 0 93-41 93-93 0-51-42-93-93-93h-40c-47 0-86 39-86 87 0 16 13 29 29 29 16 0 29-13 29-29 0-16 13-28 28-28h40c19 0 34 15 34 34 0 19-15 35-34 35h-33c-51 0-93 42-93 93 0 51 42 93 93 93h40c48 0 86-38 86-85 0-17-13-30-29-30-16 0-30 13-30 30 0 15-12 27-27 27h-40c-19 0-35-16-35-35 0-19 16-35 35-35z" horiz-adv-x="1000" />

<glyph glyph-name="reset" unicode="&#xe80c;" d="M997 408c-2 5-5 9-9 13l-125 125c-16 16-43 16-59 0-16-16-16-42 0-59l54-54h-233c-23 0-42-18-42-41s19-42 42-42h233l-54-54c-16-16-16-42 0-59 8-8 19-12 29-12s22 4 30 12l125 125c4 4 7 9 9 14 4 10 4 21 0 32z m-289-141c-23 0-41-19-41-42v-208h-167v666c0 19-12 35-30 40l-144 44h341v-209c0-23 18-41 41-41s42 18 42 41v250c0 23-19 42-42 42h-666c-2 0-3-1-5-1-2 0-3 0-5-1-5-1-9-3-12-5-1 0-2-1-3-1 0 0-1-1-1-1-4-4-8-8-11-13-1-1-1-3-1-4-2-3-3-6-3-10-1-1 0-2 0-3 0-1-1-2-1-3v-833c0-20 14-37 34-41l416-83c3-1 6-1 8-1 10 0 19 3 27 9 9 8 15 20 15 33v41h208c23 0 42 19 42 42v250c0 23-19 42-42 42z" horiz-adv-x="1000" />

<glyph glyph-name="survey" unicode="&#xe80d;" d="M458 433c-69 0-125-56-125-125 0-69 56-125 125-125 69 0 125 56 125 125 0 69-56 125-125 125z m78-98l-84-83c-4-4-9-6-14-6s-11 2-15 6l-42 42c-8 8-8 21 0 29 8 8 21 8 30 0l27-27 68 69c8 8 21 8 30 0 8-8 8-22 0-30z m256 432h-84c-1 0-2-1-3-1-9 25-32 42-59 42h-63c-20 26-50 42-83 42s-63-16-83-42h-63c-27 0-50-17-59-42-1 0-2 1-3 1h-84c-46 0-83-38-83-84v-750c0-46 37-83 83-83h584c46 0 83 37 83 83v750c0 46-37 84-83 84z m-459-21c0 11 10 21 21 21h74c8 0 15 4 18 10 12 20 32 31 54 31s42-11 54-31c4-6 10-10 18-10h74c11 0 21-10 21-21v-21c0-23-19-42-42-42h-250c-23 0-42 19-42 42v21z m369-682c-4-4-9-6-14-6-6 0-11 2-15 6l-113 113c-28-22-63-35-102-35-92 0-166 74-166 166 0 92 74 167 166 167 92 0 167-75 167-167 0-38-14-73-36-101l113-113c8-8 8-21 0-30z" horiz-adv-x="1000" />

<glyph glyph-name="user" unicode="&#xe80e;" d="M500 850c-145 0-264-118-264-264s119-263 264-263 264 118 264 263-119 264-264 264z m328-700c-72 74-168 114-269 114h-118c-101 0-197-40-269-114-72-72-111-169-111-271 0-16 13-29 29-29h820c16 0 30 13 30 29 0 102-40 199-112 271z" horiz-adv-x="1000" />

<glyph glyph-name="rights" unicode="&#xe80f;" d="M594-2v8c0 69-56 125-125 125h-313c-69 0-125-56-125-125v-8c-31-11-31-31-31-54 0-35 28-63 63-63h500c34 0 62 28 62 63 0 23 0 43-31 54z m344 602h-500v63c31 0 62 28 62 62v31c0 35-28 63-62 63h-250c-35 0-63-28-63-63v-31c0-34 31-62 63-62v-250c-32 0-63-28-63-63v-31c0-35 28-63 63-63h250c34 0 62 28 62 63v31c0 35-31 63-62 63v62h500c34 0 62 28 62 63s-28 62-62 62z" horiz-adv-x="1000" />

<glyph glyph-name="theme" unicode="&#xe810;" d="M965 850h-927c-14 0-25-11-25-24v-147c0-13 11-24 25-24h927c13 0 24 11 24 24v147c0 13-11 24-24 24z m0-268h-220c-13 0-24-11-24-25v-146c0-13 11-24 24-24h220c13 0 24 11 24 24v146c0 14-11 25-24 25z m0-269h-220c-13 0-24-10-24-24v-146c0-14 11-25 24-25h220c13 0 24 11 24 25v146c0 14-11 24-24 24z m0-268h-220c-13 0-24-11-24-24v-147c0-13 11-24 24-24h220c13 0 24 11 24 24v147c0 13-11 24-24 24z m-354 537h-573c-14 0-25-11-25-25v-414c0-14 11-25 25-25h573c13 0 24 11 24 25v414c0 14-11 25-24 25z m-576-610h371c14 0 25 11 25 24s-11 25-25 25h-371c-13 0-24-11-24-25s11-24 24-24z m566-73h-566c-13 0-24-11-24-25 0-13 11-24 24-24h566c14 0 25 11 25 24 0 14-11 25-25 25z" horiz-adv-x="1000" />

<glyph glyph-name="version" unicode="&#xe811;" d="M500 850c-276 0-500-224-500-500 0-276 224-500 500-500s500 224 500 500c0 276-224 500-500 500z m0-250c35 0 63-28 63-62 0-35-28-63-63-63s-62 28-62 63c0 34 28 62 62 62z m94-500h-188c-17 0-31 14-31 31 0 18 14 32 31 32h32v187h-32c-17 0-31 14-31 31 0 18 14 32 31 32h125c18 0 32-14 32-32v-218h31c17 0 31-14 31-32 0-17-14-31-31-31z" horiz-adv-x="1000" />

<glyph glyph-name="i-restaurant" unicode="&#xe812;" d="M476 526c0-32-29-66-66-66v-534c0-76-104-76-104 0v534c-36 0-68 28-68 70v294c0 25 37 26 37-1v-217h31v219c0 23 36 25 36-1v-218h32v219c0 24 34 25 34-1v-218h32v219c0 24 36 25 36-1v-298z m275 230v-830c0-74-103-73-103 0v330h-55v500c0 116 158 116 158 0z" horiz-adv-x="1000" />

<glyph glyph-name="restrooms" unicode="&#xe813;" d="M281 756c0-43-35-78-78-78s-77 35-77 78c0 43 34 78 77 78 43 0 78-35 78-78z m106-220v39c0 42-33 75-75 75h-218c-41 0-74-33-74-75v-39c-1-1-1-2-1-3v-226c0-17 15-32 32-32 18 0 32 15 32 32v223h21v-255h0v-360c0-23 20-42 43-42 23 0 42 19 42 42v360h28v-360c0-23 19-42 43-42 23 0 42 19 42 42v360h0v255h22v-223c0-17 14-32 31-32 18 0 32 15 32 32v226c0 1 0 2 0 3z m374 147c43 0 78 35 78 78 0 43-35 78-78 78-43 0-78-35-78-78 0-43 35-78 78-78z m218-335l-70 259c0 2-1 5-2 7-8 24-31 41-58 41h-176c-28 0-52-19-59-45 0-1-1-2-1-3l-68-259c-5-17 5-34 22-39 17-4 34 6 39 23l54 203h22l-97-368h92v-254c0-19 15-35 35-35 19 0 35 16 35 35v254h28v-254c0-19 16-35 36-35 19 0 35 16 35 35v254h92l-98 368h23l55-203c4-17 22-27 39-23 17 5 27 22 22 39z m-530 489h55v-959h-55v959z" horiz-adv-x="1000" />

<glyph glyph-name="smoking" unicode="&#xe814;" d="M11 182h832v-133h-832v133z m902 24h-45v61c0 53-40 64-74 64h-120c-37 0-69 19-88 51-14 25-18 57-12 85-40 5-67 22-83 38-27 25-42 60-42 96 0 67 46 135 134 135v-44c-70 0-89-60-89-91 0-24 10-47 28-64 20-19 48-28 82-26 9 1 16-3 21-11 4-7 4-15 0-22-13-22-12-52 0-74 7-13 22-28 49-28h120c73 0 119-42 119-109v-61z m70 0h-45v82c0 73-50 150-142 150h-71c-8 0-16 4-20 12-4 7-3 16 2 23 16 22 26 50 26 73 0 59-47 102-112 102v45c89 0 156-63 156-147 0-21-5-43-14-64h33c117 0 187-98 187-194v-82z m-115-22h45v-135h-45v135z m70 0h45v-135h-45v135z" horiz-adv-x="1000" />

<glyph glyph-name="socialservices" unicode="&#xe815;" d="M888 294v196c0 28 23 50 51 50 27 0 50-22 50-50v-268c0-37-13-73-37-101l-167-177c-17-16-21-30-21-50v-33h-182l0 77c0 29-2 69 34 107l212 213c8 7 18 11 28 11 22 0 40-18 40-40 0-10-3-19-9-26l-102-110c-7-8-18-22-24-40-3-9-4-19-4-29h33c0 7 1 13 2 19 4 10 10 20 15 26l104 114c13 13 20 30 20 48 0 26-16 51-43 63z m-766 0v196c0 28-23 50-51 50-28 0-50-22-50-50v-268c0-37 13-73 37-101l167-177c17-16 21-30 21-50v-33h182l0 77c0 29 2 69-34 107l-212 213c-8 7-18 11-28 11-22 0-40-18-40-40 0-10 3-19 9-26l102-110c7-8 18-22 24-40 3-9 4-19 4-29h-33c0 7-1 13-3 19-3 10-9 20-14 26l-104 113c-13 14-20 31-20 49 0 26 16 51 43 63z m402 460c24 0 43 20 43 44 0 23-19 43-43 43-24 0-43-20-43-43 0-24 19-44 43-44z m-234 0c-24 0-44 20-44 44 0 24 20 43 44 43 24 0 44-19 44-43 0-24-20-44-44-44z m449-166c16 0 30 13 30 30 0 17-14 30-30 30-17 0-31-13-31-30 0-17 14-30 31-30z m43-15c-10 0-71 0-81 0-1 0-28 2-28 2l-34 119c-14 48-54 47-54 47h-111c0 0-40 1-54-47l-16-58-17 58c-14 48-54 47-54 47h-86c0 0-40 1-54-47l-34-120c-4-11 2-20 12-23 10-2 20 3 23 12l33 117 17 0-49-203h43v-144c0-12 9-22 21-22 12 0 22 10 22 22v144h18v-144c0-12 10-22 22-22 11 0 21 10 21 22v144h43l-49 203 16 0 34-116c0-2 1-4 2-6 4-4 9-7 16-7 6 0 11 3 15 7 1 2 2 4 3 6l33 116 15 0c0 0 0-322 0-343 0-14 11-25 25-25 14 0 25 11 25 25 0 21 0 195 0 195h19c0 0 0-174 0-195 0-14 11-25 25-25 14 0 26 11 26 25 0 21 0 343 0 343l16 0 32-117c2-6 7-10 13-11 0 0 0-1 0-1 5-1 29-8 46-12 0-32 0-200 0-213 0-10 8-18 18-18 10 0 18 8 18 18 0 15 0 106 0 106h14c0 0 0-91 0-106 0-10 8-18 18-18s18 8 18 18c0 15 0 199 0 199h13c0 0 0-59 0-68 0-7 6-13 14-13 7 0 13 6 13 13 0 8 0 66 0 77 0 21-19 39-41 39z" horiz-adv-x="1000" />

<glyph glyph-name="stairs" unicode="&#xe816;" d="M26-34h175v178h174v180h177v176h175v175h261v-90h-174v-175h-175v-178h-176v-177h-176v-179h-261z" horiz-adv-x="984" />

<glyph glyph-name="surgery" unicode="&#xe817;" d="M50 783c-2 3-1 7 2 8l47 26c3 1 7 0 8-3l19-34c70 21 148-9 185-76l-90-49c15-27 5-61-22-76-28-15-62-5-77 22l-90-49c-36 67-20 149 36 197l-18 34z m633-612h303v-313h-303v313z m-34-156h-245c-42 0-77 34-77 77 0 43 35 77 77 77h245v-154z m-527-63c0 17 14 31 31 31h496v-125h-527v94z m188 156c0-51-42-93-94-93-51 0-93 42-93 93 0 52 42 93 93 93 52 0 94-41 94-93z m510 261l-53 150c-10 28-29 50-85 50h-242c-55 0-75-22-85-50l-52-150c-4-10-6-31 15-46l123-81c18-12 43-7 55 11 12 18 7 42-11 54l-98 65 27 76h38l-22-62 74-49c17-11 28-28 32-47 5-20 1-40-10-57-5-6-10-12-16-17h103c-6 5-12 11-16 17-11 17-15 37-11 57 4 19 16 36 32 47l75 49-23 62h38l28-76-98-65c-18-12-23-36-11-54s36-23 54-11l124 81c21 15 19 36 15 46z m-235 346c-5-13-18-21-33-21-15 0-28 8-34 21h-67c-1-6-2-12-2-18 0-57 46-103 103-103 57 0 104 46 104 103 0 6-1 12-2 18h-69z m-69 25c4 16 19 27 36 27 17 0 32-11 36-27h58c-16 35-52 60-94 60-42 0-78-25-94-60h58z" horiz-adv-x="1000" />

<glyph glyph-name="texttelephone" unicode="&#xe818;" d="M651 490h77c15 0 28-13 28-28v-59c0-15-13-28-28-28h-77c-15 0-27 13-27 28v59c0 15 12 28 27 28v0z m188 0h77c15 0 27-13 27-28v-59c0-15-12-28-27-28h-77c-16 0-28 13-28 28v59c0 15 12 28 28 28v0z m-379 0h77c15 0 28-13 28-28v-59c0-15-13-28-28-28h-77c-15 0-27 13-27 28v59c0 15 12 28 27 28v0z m-378 0h77c15 0 27-13 27-28v-59c0-15-12-28-27-28h-77c-15 0-28 13-28 28v59c0 15 13 28 28 28v0z m191 0h77c15 0 28-13 28-28v-59c0-15-13-28-28-28h-77c-15 0-27 13-27 28v59c0 15 12 28 27 28v0z m380-352h77c16 0 28-12 28-28v-59c0-15-12-28-28-28h-77c-15 0-27 13-27 28v59c0 15 12 28 27 28v0z m188 0h77c15 0 27-12 27-28v-59c0-15-12-28-27-28h-77c-15 0-28 13-28 28v59c0 15 13 28 28 28v0z m-379 0h77c15 0 28-12 28-28v-59c0-15-13-28-28-28h-77c-15 0-27 13-27 28v59c0 15 12 28 27 28v0z m-378 0h77c15 0 27-12 27-28v-59c0-15-12-28-27-28h-77c-15 0-28 13-28 28v59c0 15 13 28 28 28v0z m191 0h77c16 0 28-12 28-28v-59c0-15-12-28-28-28h-77c-15 0-27 13-27 28v59c0 15 12 28 27 28v0z m470 174h77c15 0 28-12 28-27v-60c0-15-13-27-28-27h-77c-15 0-27 12-27 27v60c0 15 12 27 27 27v0z m-191 0h77c15 0 28-12 28-27v-60c0-15-13-27-28-27h-77c-15 0-27 12-27 27v60c0 15 12 27 27 27v0z m-378 0h77c15 0 27-12 27-27v-60c0-15-12-27-27-27h-77c-15 0-28 12-28 27v60c0 15 13 27 28 27v0z m191 0h77c15 0 28-12 28-27v-60c0-15-13-27-28-27h-77c-15 0-27 12-27 27v60c0 15 12 27 27 27v0z m-188-341h640c15 0 28-13 28-28v-58c0-16-13-28-28-28h-640c-15 0-27 12-27 28v58c0 15 12 28 27 28v0z m734 679c-5 39-70 182-405 186-353 4-428-147-427-186h233c0 32 36 39 109 46 48 5 108 7 168 0 42-4 82-12 82-46l239 0z m-832-84c0-15 12-26 26-26l0 0c0 0 182 0 182 0 14 0 26 12 26 26v66l-234 0c0 0 0-66 0-66l0 0z m592 0c0-15 13-26 26-26l1 0c0 0 187 0 187 0 14 0 26 12 26 26v66h-240c0 0 0-66 0-66l0 0z" horiz-adv-x="1000" />

<glyph glyph-name="ultrasound" unicode="&#xe819;" d="M863-8c26 31 35 76 20 117l-14 37h83v699h-899v-699h483l53-144c15-41 50-69 91-77l24-75 208 0-49 142z m-76 377c-44-16-67-65-51-109l32-87h-689v646h847v-646h-67l-72 196z m62 118c-191-191-502-191-693 0l281 282c36-36 95-36 131 0l281-282z m-200 57c31 21 39 63 18 94-21 31-63 38-94 17-30-21-38-62-17-93 21-31 63-39 93-18z m-72-39c-2 4-3 7-6 11 0 0-55 57-69 71 1 18 4 62 4 62 0 16-12 30-28 30-16 1-30-11-31-27l-3-74c0-8 2-16 8-22l25-26-75-49 4 56c-2 22-21 38-43 36 0 0-71-5-97-7-16-1-29-16-27-32 1-16 16-29 32-27 18 1 60 3 77 4 0 0-14-43-11-64 1-14 5-28 14-41 26-38 79-48 117-21 14 9 82 56 95 64 18 13 24 37 14 56z" horiz-adv-x="1000" />

<glyph glyph-name="volumecontrol" unicode="&#xe81a;" d="M736 446c105 106 106 278 1 384l-18-18c95-96 95-252-1-348l18-18z m-52 331l18 18c85-87 84-226-2-313l0 0-17 17c76 77 77 201 1 278z m-40-240l20-20c67 67 67 174 1 242l-20-21c55-56 54-145-1-201z m-35 35l19-18c46 46 45 121 0 167l-18-18c35-36 35-95-1-131z m-19 21c25 25 25 65 0 90l-18-18c15-15 15-39 0-54l-1-1 19-17z m-186 177c-43-5-197-75-202-439-4-383 159-463 202-462v253c-35 0-42 38-50 117-6 53-7 118 0 182 4 46 13 90 50 90l0 259z m91-902c16 0 28 14 28 28l0 1c0 0 0 197 0 197 0 16-13 28-28 28h-72v-254c0 0 72 0 72 0l0 0z m0 643c16 0 28 13 28 28l0 0c0 0 0 203 0 203 0 16-13 28-28 28h-72v-259c0 0 72 0 72 0l0 0z" horiz-adv-x="1000" />

<glyph glyph-name="waitingarea" unicode="&#xe81b;" d="M759 328l-261 43 38 26 63-8 62 8z m-160 493c52 0 94-42 94-95 0-52-33-94-94-94-53 0-95 42-95 94 0 53 42 95 95 95z m23-685v-229c0-28 23-52 52-52 28 0 52 24 52 52v229c0 29-24 52-52 52-29 0-52-23-52-52z m317-130c0-17-13-31-30-31h-159v150h69v150c0 17 13 30 30 30h60c17 0 30-13 30-30v-269z m-342-31h-308c-16 0-30 14-30 31v269c0 17 14 30 30 30h60c17 0 30-13 30-30v-150h218v-150z m-162 324c-4-28 15-55 43-59l226-38c28-4 55 15 59 43 5 28-14 55-42 59l-226 38c-29 4-55-15-60-43z m-255 284c-73 0-133 60-133 133 0 74 60 134 133 134 74 0 134-60 134-134 0-73-60-133-134-133v0z m0 33c56 0 101 45 101 100 0 56-45 101-101 101-55 0-100-45-100-101 0-55 45-100 100-100v0z m1 83c-3-2-7-2-10 0-2 2-4 5-4 7l0 78c0 6 4 10 10 10 5 0 10-4 10-10v0-60l51 24c5 2 11 0 14-5v0c2-5 0-11-5-13v0l-66-31z m418-143l122 20v-86c20-15 61-46 61-46 6-6 3-12 2-14-3-5-10-6-14-2l-77 57c-16 12-38 8-49-8-11-16-7-38 9-49l130-92c6-4 15-7 24-7v0c7 0 16 3 22 8 14 9 19 27 14 43l-48 143c-13 36-46 78-95 78h-203c-49 0-82-42-95-78l-48-143c-5-16 0-34 14-43 6-5 15-8 22-8v0c9 0 18 3 24 7l130 92c16 11 20 33 9 49-11 16-33 20-49 8l-77-57c-4-4-11-3-14 2-1 2-4 8 2 14 0 0 41 31 61 46v86l123-20z" horiz-adv-x="1000" />

<glyph glyph-name="womenshealth" unicode="&#xe81c;" d="M503 599c-68 0-123 54-123 122 0 67 55 121 123 121 67 0 122-54 122-121 0-68-55-122-122-122z m331-567c-27-8-55 6-62 31l-94 328-46 0 150-523h-559l150 523-46 0-94-328c-7-25-35-39-62-31-28 8-45 32-36 63l97 336c38 135 151 131 151 131h239c0 0 113 4 152-131l96-336c9-31-8-55-36-63z m-331 298c-83 0-150-67-150-151 0-75 55-138 128-148v-42h-45v-45h45v-45h45v45h45v45h-45v42c72 11 128 73 128 148 0 84-68 151-151 151z m0-253c-58 0-105 47-105 104 0 58 47 105 105 105 58 0 104-47 104-105 0-57-46-104-104-104z" horiz-adv-x="1000" />

<glyph glyph-name="accessibility" unicode="&#xe81d;" d="M255 445c-95-54-154-155-154-264 0-81 32-157 89-215 57-57 133-88 214-88 141 0 262 95 294 232l-51 12c-27-112-127-191-243-191-67 0-129 26-177 73-47 47-73 110-73 177 0 90 49 173 127 217l-26 47z m617-375l-55-22-150 279h-305l-10 92 236 0 0 53-242 1-22 202c10-2 21-3 31-2 47 6 80 48 74 94-5 47-47 80-94 74-46-5-80-47-74-94 1-7 3-13 5-19l-1 0 47-430 2-24h321l157-294 100 40-20 50z" horiz-adv-x="1000" />

<glyph glyph-name="administration" unicode="&#xe81e;" d="M879 527c0-63-51-114-114-114s-114 51-114 114c0 63 51 114 114 114 63 0 114-51 114-114z m-828 225v-206h-30c-6 0-11 4-11 10v267c0 9 7 16 16 16h137c9 0 16-7 16-16v-16h211c6 0 11-5 11-10v-60h-181v15c0 9-7 17-16 17h-136c-10 0-16-8-16-17z m433-332c0-5-5-10-11-10h-369c-6 0-11 5-11 10v267c0 9 7 16 16 16h137c9 0 16-7 16-16v-16h211c6 0 11-4 11-10v-241z m-164 152v63h-63v-63h-63v-63h63v-63h63v63h63v63h-63z m558-188c63 0 114-51 114-114l1-418h-384v346h-15l-71-105c-12-16-35-24-54-24h-166c-27 0-50 23-50 50 0 28 23 49 50 49h151l105 159c25 38 74 57 114 57l205 0z" horiz-adv-x="1000" />

<glyph glyph-name="alternativecomplementary" unicode="&#xe81f;" d="M188 505c5 52-8 105-41 151-33 45-80 74-130 86-5-52 8-106 41-151 33-46 80-75 130-86z m-21 165c8-12 16-24 22-37 6 13 13 25 22 37 10 13 20 25 32 36-5 47-24 89-54 122-29-33-49-76-54-122 12-11 23-23 32-36z m194 72c-51-12-98-41-130-86-13-17-23-36-29-55 9-28 13-59 11-89 42 14 79 40 107 79 33 45 46 99 41 151z m275-50c-49 0-89-40-89-89 0-49 40-89 89-89 49 0 89 40 89 89 0 49-40 89-89 89z m231-372l-46 129c-8 25-25 44-73 44h-209c-48 0-64-19-73-44l-45-129c-4-8-6-27 13-39l106-71c16-10 37-6 47 10 10 16 6 36-10 47l-84 55 24 66h33l-20-53 64-42c15-10 25-25 28-41 4-17 0-35-9-49-4-6-9-11-14-15h89c-5 4-10 9-14 15-9 14-13 32-9 49 3 16 13 31 28 41l64 42-19 53h32l24-66-84-55c-16-11-20-32-10-47 10-16 31-20 47-10l106 71c19 12 17 31 14 39z m-38-194c0 45 37 81 82 81 45 0 82-36 82-81 0-45-37-82-82-82s-82 37-82 82z m-795-164c-10 0-19-9-19-19v-24c0 0-1-35 34-35 27 0 907 0 907 0 36 0 34 34 34 34v74c0 0-3 24-30 24h-89c-30 0-55-54-113-54h-724z m704 185h-255l-106-17 5 105h-18l5-106-74-11 6 115h-18l5-116-100-16 5 116h-17l5-117-121-18c-1 0-1 0-2 0l5 108h-18l5-109c-20-5-35-23-35-44 0-25 20-45 45-45l348 0c-6 10-10 21-10 34 0 35 29 64 65 64h139l113 24 6-30-116-25h-142c-19 0-34-15-34-33 0-19 15-34 33-34l276 0c43 0 77 35 77 77 0 43-34 78-77 78z" horiz-adv-x="1016" />

<glyph glyph-name="ambulance" unicode="&#xe820;" d="M528 607v20h26v12c0 22 20 40 43 40 24 0 44-18 44-40v-12h25v-20h-138z m319-497c0-51-41-92-92-92-51 0-92 41-92 92 0 50 41 92 92 92 51 0 92-42 92-92z m-48 0c0 24-20 44-44 44-24 0-44-20-44-44s20-44 44-44c24 0 44 19 44 44z m-478 1c0-51-41-92-91-92-51 0-92 41-92 92 0 50 41 91 92 91 50 0 91-41 91-91z m-47 0c0 24-20 43-44 43s-44-19-44-43c0-25 20-44 44-44 24 0 44 19 44 44z m635 260c28-6 44-17 56-85l20-122c7-40-15-54-43-54h-68c0 65-53 119-119 119-66 0-119-54-119-119h-287c0 65-54 119-120 119-66 0-119-54-119-119h-56c-19 0-35 14-35 34v401c0 22 18 40 39 40h721c28 0 48-14 58-38l72-176z m-240 173v-167h193l-68 167h-125z m-173-146v103h-102v-103h-103v-102h103v-102h102v102h103v102h-103z" horiz-adv-x="1000" />

<glyph glyph-name="anesthesia" unicode="&#xe821;" d="M222 679c32 18 62 23 90 15 28-8 49-29 62-45-33-24-52-62-53-104 0-3 0-5 1-8 2-10 8-18 19-23 1 0 3-1 7-1 11 0 24 4 25 4l178 51c14 4 21 11 22 23l0 2c0 0 0 0 0 0 2 8-7 22-14 26-12 6-22 12-32 18-37 21-63 37-90 37-2 0-5 0-8-1-16 22-49 61-100 77-43 12-89 6-135-20-18-10-110-56-174 2v-70c86-42 181 6 202 17z m537-136c-25 6-92 13-92 13l-58 23c-4-15-14-37-47-47l-179-50c-6-2-21-6-35-6-8 0-14 1-20 3-17 7-29 18-36 32-17-21-27-47-27-76l0-48-48 0c-46 63-116 106-198 115v-558c82 9 153 53 198 116h214c56-71 143-117 241-117 169 0 307 137 307 306 0 139-105 268-220 294z m-123-47c0 9 7 16 15 16 9 0 16-7 16-16v-67c0-8-7-16-16-16-8 0-15 8-15 16v67z m44-286c0-51-41-93-92-93-51 0-92 42-92 93v7h31v-7c0-34 27-62 61-62 34 0 61 28 61 62v7h31l0-7z" horiz-adv-x="984" />

<glyph glyph-name="billing" unicode="&#xe822;" d="M227 664c42 0 76 34 76 75 0 42-34 76-76 76-41 0-75-34-75-76 0-41 34-75 75-75z m568 1c42 0 76 34 76 77 0 42-34 76-76 76-43 0-77-34-77-76 0-43 34-77 77-77z m-596-431c-99 0-179-81-179-180 0-100 80-180 179-180s180 80 180 180c0 99-80 180-180 180z m22-295v-28h-43v28c-46 6-75 49-75 78h46c0-13 9-30 29-34v54c-10 2-15 3-26 6-27 8-46 30-46 60 0 28 28 61 72 66v27h43v-27c46-5 74-39 74-73l-45 0c0 15-12 28-29 30v-51c12-3 12-2 24-5 43-12 52-40 52-64 0-36-29-61-76-67z m-43 144c-19 3-25 12-25 21 0 10 13 20 25 21v-42z m43-100v46c19-3 31-11 31-23 0-10-11-22-31-23z m-92 550h30l-35-128h207l-35 128h30l35-128h67l-43 155c-11 38-48 78-97 78h-121c-49 0-86-40-97-78l-43-155h66l36 128z m748 105c37 0 68-30 68-68l0-209h44v-86l-89 0v-356c0-25-21-45-45-45-25 0-45 20-45 45 0 34 0 312 0 356h-29c0-44 0-322 0-356 0-25-20-45-45-45-25 0-45 20-45 45 0 19 0 193 0 356l-671-1v87h671c0 112 0 201 0 201l-144-169c-30-35-84 8-53 46l148 178c10 10 18 21 54 21h181z" horiz-adv-x="1000" />

<glyph glyph-name="cardiology" unicode="&#xe823;" d="M86 319h86c7 0 13-3 17-8 0 0 16-25 33-50 9 81 41 364 41 364 1 10 8 17 18 18 9 0 18-6 20-15 0 0 42-174 61-256 13 36 26 73 26 73 3 8 10 13 18 13 9 0 16-5 19-13 0 0 38-104 46-126 20 0 75 0 75 0 7 0 13-3 17-8 0 0 16-25 33-50 9 81 41 364 41 364 1 10 8 17 18 18 9 0 18-6 20-15 0 0 42-174 61-257 13 37 26 74 26 74 3 8 10 13 18 13 9 0 16-5 19-13 0 0 38-104 46-126 14 0 54 0 77 0l4 8c37 65 65 184 65 270 0 111-81 244-237 244-225 0-253-210-253-210s-28 209-252 209c-151 0-232-128-232-243 0-99 43-221 65-271l4-7z m746-39c-9 0-16 6-19 13 0 0-17 47-32 88-14-40-30-85-30-85-3-8-11-13-19-13-9 1-16 7-18 15 0 0-28 117-51 212-13-120-34-307-34-307-1-8-7-14-15-16-8-2-17 1-21 8 0 0-48 71-57 85-16 0-78 0-78 0-9 0-16 6-19 13 0 0-17 47-32 88-14-40-30-85-30-85-3-8-11-13-19-13-9 1-16 7-18 15 0 0-28 117-51 212-13-120-34-307-34-307-1-8-7-14-15-16-8-2-17 1-21 8 0 0-48 71-57 85-8 0-33 0-55 0 140-248 394-412 394-412s258 164 400 412l-69 0z" horiz-adv-x="1000" />

<glyph glyph-name="carestaffarea" unicode="&#xe824;" d="M626 529c0-72-58-129-129-129-71 0-129 57-129 129s58 129 129 129c71 0 129-58 129-129z m-129 313c-59 0-143-24-203-84l72-131c30 39 78 64 131 64 54 0 102-26 133-65l70 135c-52 57-146 81-203 81z m53-96h-33v-33h-40v33h-33v40h33v34h40v-34h33v-40z m-222-578h33l-47-162h368l-47 162h33l47-162h109l-74 245c-12 41-63 112-150 114l-201 0c-90 0-141-73-153-114l-75-245h110l47 162z m-313-213h964v-92h-964v92z" horiz-adv-x="1000" />

<glyph glyph-name="cathlab" unicode="&#xe825;" d="M10 214h806v-63h-806v63z m599-171c0 42-186 38-186-1 0-6 0-130 0-143-2-20 12-39 32-39 15 0 498 0 498 0 20 0 36 16 36 36 0 0 0 452 0 453 0 284-244 513-534 486-20-1-34-19-32-38 0-14 0-155 0-155h186v110c178-48 308-211 308-403 0-193-130-356-308-403v97z m63 305c0 44 35 80 80 80 44 0 80-36 80-80 0-45-36-81-80-81-45 0-80 36-80 81z m-103 83h-269l-290-45v-118l211-1c-6 11-10 23-10 36 0 37 30 68 68 68h147l119 25 7-32-123-26h-150c-20 0-36-15-36-35 0-20 16-35 35-36l292 0c45 1 81 37 81 82 0 45-37 82-82 82z" horiz-adv-x="1000" />

<glyph glyph-name="chapel" unicode="&#xe826;" d="M620 297v303l-117 243-116-243v-303l-236-114v-314h280v152c0 77 70 103 70 103s70-26 70-103v-152h285v314l-236 114z m-77 124h-80v64c0 64 40 85 40 85s40-21 40-85v-64z" horiz-adv-x="1000" />

<glyph glyph-name="coffeeshop" unicode="&#xe827;" d="M788 622c-3 0-6 0-8 0v0h-551v-363c0-54 44-98 98-98h354c55 0 99 44 99 98v26c2 0 5 0 8 0 97 0 175 73 175 170 0 96-78 167-175 167z m0-270c-3 0-6 0-8 0v204c2 0 5 0 8 0 58 0 106-43 106-101s-48-103-106-103z m194-212v-4c0-54-44-98-98-98h-765c-55 0-99 44-99 98v4h962z" horiz-adv-x="1000" />

<glyph glyph-name="dental" unicode="&#xe828;" d="M502 316c74 0 108-56 115-136 2-19 0-46-2-79-9-106-18-238 53-238 60 0 91 116 109 247 17 131-1 195 8 253 17 110 113 208 83 348-16 77-59 114-101 129-98 35-161-33-265-33-105 0-168 68-265 33-42-15-85-52-101-129-30-140 66-238 83-348 9-58-9-122 8-253 18-131 49-247 109-247 71 0 61 132 53 238-2 33-4 60-2 79 7 80 41 136 115 136z" horiz-adv-x="1000" />

<glyph glyph-name="dermatology" unicode="&#xe829;" d="M483 63c-11 11-28 11-39 0l-129-129-16 16 173 173c11 11 11 28 0 39-11 11-28 11-39 0l-173-173-16 16 201 202c11 10 11 28 0 38-10 11-28 11-38 0l-202-201-16 16 158 158c11 11 11 28 0 39-11 11-28 11-39 0l-203-203c0 19-1 55-1 87 0 44-56 51-59 48-2-3-30-312-30-312h321l18 18-1 0 130 130c11 10 11 28 0 38z m144 756c-162 0-312-121-343-256-7-29-15-107-15-107l-74-188c-2-4-2-8-2-12 0-15 12-28 28-28h26l45 45c20 20 52 20 71 0 7-7 12-16 14-25l14 13c19 20 51 20 70 0 20-19 20-50 1-69 10-2 19-7 26-14 20-19 20-51 0-71l-15-14c10-2 19-7 26-14 19-19 19-51 0-71l-32-32v-99h382v304c83 65 136 167 136 281 0 197-160 357-358 357z m-269-435c-23 0-40 18-40 40 0 22 17 40 40 40 22 0 39-18 39-40 0-22-17-40-39-40z m186-93c10 0 19-8 19-18 0-10-9-18-19-18-10 0-18 8-18 18 0 10 8 18 18 18z m-11-113c-10 0-18 8-18 18 0 10 8 18 18 18 11 0 19-8 19-18 0-10-8-18-19-18z m39-79c-15 2-26 15-25 30 2 15 15 26 30 25 15-2 26-15 25-30-2-15-15-26-30-25z m26 109c-15 0-27 13-27 28s12 27 27 27c15 0 28-12 28-27s-13-28-28-28z m39-57c-10 0-18 8-18 19 0 9 8 18 18 18 10 0 18-9 18-18 0-11-8-19-18-19z m41 106h-7v32l7 1c40 0 73 33 73 73 0 40-33 73-73 74l-7 0v32h7c58 0 106-48 106-106s-48-106-106-106z" horiz-adv-x="1000" />

<glyph glyph-name="diabeteseducation" unicode="&#xe82a;" d="M83 70c-70 0-75 75-75 75v468h919c0 0 70 3 70-60 0-67-60-64-60-64h-246c-6 3-12 4-19 5l-201 26-222 63c-7 3-14-2-16-9-2-7 2-14 9-17l226-65c16-4 29-15 36-29 8-14 10-30 6-46-5-15-15-28-29-36-14-8-31-10-46-6 0 0 0 0-1 0l-95 28c-49 16-86 0-125-16-30-13-61-26-103-29-5 0-11-1-17-1-8 0-14-6-14-13 0-7 6-14 14-14 56 0 96 17 131 32 37 15 66 28 106 15 0 0 9-2 20-6-26-12-46-37-50-68-5-36 13-70 42-87-18-12-31-32-34-56-6-43 25-86 69-90 0 0-226 0-295 0z m726 57h122v30h-122v-30z m46 179v-45h-46v-30h46v-45h30v45h46v30h-46v45h-30z m15-240c-75 0-111 61-111 115 0 80 111 256 111 256s111-176 111-256c0-54-37-115-111-115z m-149 333c-4-33-35-57-68-52l-147 18c14 12 25 27 30 45 6 22 3 46-8 66-2 4-4 7-6 10l146-19c34-4 57-34 53-68z m-71-140c-2-16-10-31-23-41-13-10-29-14-45-12l-202 25c-33 5-56 35-52 68 2 16 10 31 23 41 13 10 29 14 45 12l201-25c34-5 57-35 53-68z m-94-130c-4-29-30-49-59-46l-116 15c-28 4-49 30-45 59 3 28 30 49 59 45l115-14c27-4 46-26 46-52 0-3 0-5 0-7z" horiz-adv-x="1000" />

<glyph glyph-name="drinkingfountain" unicode="&#xe82b;" d="M890 504v-258h-139l-189 192c0 0-30 60 29 66h299z m-199 238c0-50-41-91-91-91-50 0-91 41-91 91 0 50 41 91 91 91 50 0 91-41 91-91z m-81-387l-100 102v161c0 3 0 5 0 8 0 50-40 91-91 91-10 0-21-2-30-6l0 1-3-2c-10-4-20-10-28-17l-184-114c-1 0-2-1-3-2l-3-2 0 0c-24-16-39-44-39-74l0 0v-559c-1-3-1-5-1-8 0-38 32-69 70-69 39 0 70 31 70 69 0 4 0 7-1 10v476l-2 1c0 0 1 1 1 1l1-2 152 99v-106l129-125 1 0c8-8 19-13 32-13 25 0 46 20 46 45 0 14-7 27-17 35z m208 228c0-8-7-15-15-15s-16 7-16 15c0 8 7 15 16 15 8 0 15-7 15-15z m-36-17c0-8-6-15-15-15s-15 7-15 15c0 9 7 15 15 15 9 0 15-6 15-15z m-85 80c0 6 5 11 11 11 6 0 11-5 11-11 0-7-5-12-11-12-6 0-11 5-11 12z m-14-12c0-6-5-11-11-11s-12 5-12 11c0 6 6 11 12 11 6 0 11-5 11-11z m-30-27c0-6-5-11-11-11s-12 5-12 11c0 6 5 11 12 11 6 0 11-5 11-11z m-15-38c0-6-5-11-12-11s-11 5-11 11c0 7 5 12 11 12 7 0 12-5 12-12z m0-37c0-6-5-11-12-11s-11 5-11 11c0 6 5 11 11 11 7 0 12-5 12-11z m35 0c0-6-5-11-11-11s-11 5-11 11c0 6 5 11 11 11 6 0 11-5 11-11z m0 35c0-7-5-12-11-12s-11 5-11 12c0 6 5 11 11 11 6 0 11-5 11-11z m15 32c0-7-5-12-12-12s-11 5-11 12c0 6 5 11 11 11 7 0 12-5 12-11z m31 14c0-6-5-11-12-11s-11 5-11 11c0 6 5 11 11 11 7 0 12-5 12-11z m38 28c0-7-6-12-13-12s-12 5-12 12c0 7 6 13 12 13 7 0 13-6 13-13z m-2-39c0-7-5-13-12-13s-13 6-13 13c0 7 6 12 13 12 7 0 12-5 12-12z m36 19c0-7-5-13-12-13-7 0-13 6-13 13 0 7 6 12 13 12 7 0 12-5 12-12z" horiz-adv-x="984" />

<glyph glyph-name="earnosethroat" unicode="&#xe82c;" d="M539 835c-168 0-323-126-355-265-7-31-15-111-15-111l-77-195c-2-3-3-7-3-12 0-16 14-29 30-29h8c-1 6 0 13 5 18 12 13 24 23 37 32 9 6 21 4 28-5 6-9 3-21-6-27-7-6-15-12-22-19v-72h17c11 0 20-9 20-20 0-11-9-20-20-20h-17c5-76 68-137 146-137h58v-113h86v15c0 11 9 19 20 19 11 0 20-8 20-19v-15h35v15c0 11 9 19 20 19 11 0 19-8 19-19v-15h194v314c86 68 142 173 142 291 0 204-166 370-370 370z m-279-367c23 0 41-18 41-41 0-23-18-41-41-41-23 0-41 18-41 41 0 23 18 41 41 41z m-45-192c-3 11 3 22 13 25 15 4 32 7 49 8 11 1 20-7 21-18 0-11-8-21-19-21-14-1-27-4-40-7-2-1-4-1-5-1-9 0-17 6-19 14z m75-166h-45c-11 0-19 9-19 20 0 11 8 20 19 20h45c11 0 20-9 20-20 0-11-9-20-20-20z m257 272h46c10 0 19-9 19-20 0-11-9-19-19-19h-46c-10 0-19 8-19 19 0 11 9 20 19 20z m-106-52c9 16 23 30 40 39 10 5 22 1 27-9 5-10 1-21-9-26-10-6-19-14-24-23-3-7-10-10-17-10-3 0-7 1-10 2-9 6-13 18-7 27z m-124-40c2 10 12 18 23 16 16-3 32-7 47-12 10-4 15-15 12-25-3-8-11-13-19-13-2 0-4 0-6 1-13 4-27 8-40 10-11 2-18 12-17 23z m92-188c-4-7-11-11-18-11-3 0-6 1-9 3-11 6-24 10-37 13-10 2-17 13-15 23 2 11 13 18 23 16 17-4 33-10 48-18 9-5 13-17 8-26z m8 158c4 6 10 9 17 9 2 6 7 12 13 13 11 3 22-3 24-14 5-19 15-36 15-36 6-9 3-21-6-27-3-2-7-3-10-3-5 0-10 2-14 6 0 0 0 0 0 0-10 9-22 18-33 25-9 6-12 18-6 27z m25-233c-5 13-13 24-21 34-7 9-5 21 3 28 8 7 21 6 28-3 10-13 19-27 26-42 5-10 0-22-10-26-2-2-5-2-8-2-7 0-14 4-18 11z m57-93c0-11-9-20-20-20-11 0-20 9-20 20v11c0 10-1 21-2 31-2 11 6 21 17 22 11 2 20-6 22-16 2-12 3-25 3-37l0-11z m13 197c-6 12-12 24-20 36-7 9-4 21 5 27 9 6 21 4 27-5 9-13 17-27 24-42 5-10 0-22-10-26-2-1-5-2-8-2-7 0-14 4-18 12z m22-94c0 14-2 28-5 42-2 10 5 21 16 23 10 2 21-5 23-15 3-16 5-32 5-48 1-11-8-20-19-21 0 0 0 0 0 0-11 0-20 9-20 19z m39-103c0-11-8-20-19-20s-20 9-20 20v45c0 11 9 20 20 20s19-9 19-20v-45z m11 319v33l7 1c42 0 76 34 76 76 0 41-34 76-76 76l-7 0v33h7c60 0 110-49 110-109 0-61-50-110-110-110h-7z" horiz-adv-x="1000" />

<glyph glyph-name="elevators" unicode="&#xe82d;" d="M811-61v437c0 44-35 80-80 80h-438c-47 0-80-36-80-80l0 0v-437c0-45 36-80 80-80h439c43 0 79 33 79 79v1z m-83 3h-433v430h433v-430z m-108 853c-1 57 82 58 83 0l-2-174 45 55c31 33 85-14 51-52l-108-128c-17-17-39-17-56 0l-107 129c-34 38 21 85 51 51l44-55-1 174z m-301-269c0-58 83-58 83 0l-1 173 45-54c30-34 84 13 51 51l-108 129c-17 17-39 17-56 0l-108-129c-33-39 21-86 52-52l44 55-2-173z m389-400c0-9-7-15-15-15 0 0-97 0-97 0-8 0-15 6-15 15v105c0 12 10 21 21 21-1 0 85 0 85 0 12 0 21-10 21-21v-105h0z m-24-11h-37v-142c0-26 37-26 37 0v142z m-43 0h-36v-142c0-26 36-26 36 0v142z m31 173c0-15-12-28-27-28s-28 13-28 28c0 15 13 28 28 28 15 0 27-13 27-28z m-97-162c0-9-7-15-15-15 0 0-96 0-96 0-8 0-15 6-15 15v105c0 12 10 21 20 21 0 0 86 0 86 0 11 0 20-10 20-21v-105h0z m-24-11h-36v-142c0-26 36-26 36 0v142z m-42 0h-37v-142c0-26 37-26 37 0v142z m31 173c0-15-12-28-28-28-15 0-27 13-27 28 0 15 12 28 27 28 16 0 28-13 28-28z m-97-162c0-9-7-15-15-15 0 0-97 0-97 0-7 0-15 6-15 15v105c0 12 10 21 21 21 0 0 85 0 85 0 12 0 21-10 21-21v-105h0z m-24-11h-37v-142c0-26 37-26 37 0v142z m-42 0h-37v-142c0-26 37-26 37 0v142z m31 173c0-15-13-28-28-28s-28 13-28 28c0 15 13 28 28 28 15 0 28-13 28-28z" horiz-adv-x="984" />

<glyph glyph-name="emergency" unicode="&#xe82e;" d="M397 390c-4 0-8 0-12 0v-40h14c11 0 16 6 16 20 0 11-3 20-18 20z m263 115v320h-321v-320h-321v-322h321v-320h321v320h322v322h-322z m-530-226h-65v130h63v-21h-38v-31h34v-21h-34v-37h40v-20z m118 0h-23v84h-1l-25-49-24 49v-84h-25v130h24l25-49 26 49h23v-130z m91 0h-65v130h63v-21h-38v-31h34v-21h-34v-37h40v-20z m102 0h-26l-12 46c-1 3-2 5-5 5h-13v-51h-26v129c13 2 24 2 37 2 26 0 44-12 44-39 0-19-8-28-19-33v0c2-1 3-3 4-6l16-53z m106 57c0-29-7-59-42-59-36 0-48 35-48 67 0 32 13 67 50 67 14 0 24-5 34-15l-14-19c-6 7-10 13-21 13-21 0-23-30-23-46 0-16 1-47 23-47 16 0 18 15 18 29v4h-17v21h40v-15z m86-57h-64v130h63v-21h-38v-31h34v-21h-34v-37h39v-20z m110 0h-22l-42 80h0v-80h-25v130h25l39-77h1v77h24v-130z m71-2c-36 0-49 32-49 67 0 33 14 67 50 67 15 0 25-7 35-19l-15-17c-6 8-11 15-20 15-18 0-24-23-24-46 0-18 4-46 24-46 11 0 17 6 23 15l13-18c-9-11-21-18-37-18z m101 52v-50h-25v48l-34 82h27l19-59 20 59h26l-33-80z" horiz-adv-x="1000" />

<glyph glyph-name="familypractice" unicode="&#xe82f;" d="M854 390c82 0 131-49 131-124v-351c0-27-2-49-2-49h-376v341h-15l-70-104c-11-15-34-23-52-23h-164c-27 0-49 22-49 49 0 27 22 49 49 49h149l103 156c25 37 71 55 112 55 0-109 27-156 77-156v-182c-14-6-24-20-24-36 0-22 17-39 39-39 22 0 39 18 39 39 0 17-10 30-24 36v183c50 0 77 46 77 156z m-31 0c-1-113-20-127-61-127-41 0-60 14-61 127h122z m-62 253c62 0 113-50 113-112 0-62-51-112-113-112-62 0-112 50-112 112 0 62 50 112 112 112z m-275-15c13 0 24 11 24 25s-11 25-24 25c-14 0-25-11-25-25s11-25 25-25z m-178 137c19 0 35 16 35 35 0 20-16 36-35 36-20 0-36-16-36-36 0-19 16-35 36-35z m-192 0c19 0 36 16 36 35 0 20-17 36-36 36-20 0-36-16-36-36 0-19 16-35 36-35z m336-352c0-8 6-14 14-14 9 0 15 6 15 14 0 12 0 88 0 88h11c0 0 0-76 0-88 0-8 7-14 15-14 8 0 15 6 15 14 0 12 0 163 0 163h11c0 0 0-48 0-55 0-6 5-11 11-11 6 0 11 5 11 11v63c0 18-16 32-33 32 0 0-68 0-68 0l-22 2-28 98c-11 39-44 38-44 38h-91c0 0-33 1-45-38l-14-52-15 52c-11 39-44 38-44 38h-71c0 0-33 1-44-38l-28-99c-3-9 2-18 10-20 8-2 16 3 19 10l27 97h14l-41-167h36v-118c0-10 8-18 17-18 10 0 18 8 18 18v118h15v-118c0-10 8-18 18-18 10 0 17 8 17 18v118h35l-39 167h13l27-97c2-6 8-11 15-10 7-1 14 4 16 10l27 97h13c0 0 0-265 0-282 0-11 9-20 21-20 11 0 21 9 21 20 0 17 0 160 0 160h15c0 0 0-143 0-160 0-11 9-20 21-20 11 0 21 9 21 20 0 17 0 282 0 282h13l26-93c1-6 7-11 13-13l36-10v-175h0z" horiz-adv-x="1000" />

<glyph glyph-name="fireextinguisher" unicode="&#xe830;" d="M620 768v-27h-117v42h-34c0 27-29 61-70 61-39 0-75-31-75-78 0-22 12-42 24-49-45-16-105-73-117-108-16-32 29-60 52-27 23 33 49 73 127 92l0-34c-32-6-120-57-120-158v-584c0-15 7-39 36-39h257c29 0 36 24 36 39v584c0 101-85 152-117 158l0 41h118v-25l287-44v198l-287-42z m-222-31c-18 0-33 15-33 33 0 19 15 33 33 33 19 0 34-14 34-33 0-18-15-33-34-33z" horiz-adv-x="984" />

<glyph glyph-name="firstaid" unicode="&#xe831;" d="M974 531h-304v303h-349v-303h-303v-349h303v-303h349v303h304z" horiz-adv-x="984" />

<glyph glyph-name="genetics" unicode="&#xe832;" d="M541 733c30 0 54 24 54 54 0 30-24 54-54 54-30 0-54-24-54-54 0-30 24-54 54-54z m-293 0c-30 0-54 24-54 54 0 30 24 54 54 54 31 0 55-24 55-54 0-30-24-54-55-54z m599-170c0-21-17-38-38-38s-38 17-38 38c0 20 17 37 38 37 21 0 38-17 38-37z m17-57c-14 0-90 0-102 0-1 0-35 3-35 3l-42 149c-18 60-68 58-68 58h-138c0 0-50 2-68-58l-21-73-21 73c-17 60-67 58-67 58h-107c0 0-51 2-68-58l-43-150c-4-14 4-25 16-28 12-4 25 2 28 14l42 146 20 0-61-253h54v-180c0-15 12-27 27-27 15 0 27 12 27 27v180h23v-180c0-15 12-27 27-27 14 0 27 12 27 27v180h53l-61 253 21 0 41-145c1-2 2-5 3-7 4-6 11-9 19-9 8 0 15 3 19 9 2 2 3 5 4 8l41 144 19 0c0 0 0-402 0-428 0-18 14-32 32-32 17 0 31 14 31 32 0 26 0 243 0 243h24c0 0 0-217 0-243 0-18 14-32 31-32 18 0 32 14 32 32 0 26 0 428 0 428l21 0 40-146c2-8 8-12 15-14 0 0 1-1 1-1 6-1 36-9 58-16 0-39 0-249 0-265 0-12 10-22 22-22 12 0 22 10 22 22 0 18 0 133 0 133h17c0 0 0-115 0-133 0-12 10-22 23-22 12 0 22 10 22 22 0 18 0 248 0 248h17c0 0 0-73 0-84 0-9 8-17 17-17 9 0 16 8 16 17 0 9 0 82 0 96 0 26-24 48-50 48z m-116-526c-11 8-21 16-32 25-8 7-17 14-26 21-53 41-109 79-171 85-5 0-10 1-15 1-5 0-10-1-15-2-62-5-118-43-171-85 2-1 3-3 5-4 7-5 13-10 20-15 53 41 105 75 161 75 56 0 108-34 161-75 11-8 21-17 32-26 9-6 17-13 26-20 58-45 118-86 187-86 26 0 51 6 76 16v34c-25-12-50-20-76-20-57 0-109 34-162 76z m-25 45c2-1 4-3 5-4 7-5 13-10 20-16 19 15 38 29 58 41v-83c10-7 20-13 30-18v118c19 8 39 15 58 17v-154c5 0 10-1 15-1 5 0 11 1 16 1v154c21-2 41-9 61-18v33c-25 10-50 17-76 17-68 0-129-42-187-87z m-438-65c-2 1-5 3-7 5-6 5-12 9-18 14-53-41-105-75-162-75-26 0-51 8-75 21v-34c24-11 49-17 75-17 68 0 129 41 187 86z m-202-34c5-1 10-1 15-1 5 0 10 0 16 1v154c19-2 39-8 58-17 0-1 0-2 0-3v-115c10 6 20 12 30 18v83c30-18 59-41 89-66 66-52 134-106 213-106 68 0 128 40 186 85-2 2-4 4-7 6-6 5-12 9-18 14-19-14-38-28-57-40v82c-10 7-20 13-30 18v-114c0-1 0-1 0-2-19-9-39-15-59-17v153c-5 1-10 1-16 1-5 0-10 0-14-1v-154c-20 2-40 8-59 17 0 1 0 2 0 3v115c-10-5-20-11-30-18v-83c-30 18-59 42-90 66-65 52-133 107-212 107-26 0-51-6-75-16v-33c19 9 39 15 60 17v-154h0z" horiz-adv-x="1000" />

<glyph glyph-name="giftshop" unicode="&#xe833;" d="M903 463v-591h-352v592h75l-74 58 41 55 66-48-29 96 64 20 33-102h0l33 102 64-20-29-96 64 48 41-55-72-58h75v-1z m-66-69h-75v-94h75v94z m-145 0h-75v-94h75v94z m145-163h-75v-290h75v290z m-145 0h-75v-290h75v290z m-346 85h98v-345c-29-4-29-47 1-51v-51h-246c-41 0-77 37-77 81v278c0 28 11 49 40 63 0 0 184 82 185 82l-1-57z m23-352h-172c-27 0-27-38 0-38h174c-13 8-13 29-2 38z m20 296h-43v-194l-107-48h150v242z m-17 421l16-25c100 65 478 60 482 60l0 30c-16 0-391 5-498-65z m-105-44c0 0-39-40-87-40-48 0-87 18-87 40 0 22 39 40 87 40 48 0 87-40 87-40z m68 0c0 0 39-40 87-40 48 0 87 18 87 40 0 22-39 40-87 40-48 0-87-40-87-40z m-58-23c0 0 1-56-32-90-34-33-74-48-90-32s-1 56 33 90c33 33 89 32 89 32z m49 49c0 0 56-1 90 33 33 33 48 74 32 89-15 16-56 1-89-32-34-34-33-90-33-90z m-25-57c0 0 40-39 40-87 0-48-18-87-40-87-22 0-40 39-40 87 0 48 40 87 40 87z m0 68c0 0 40 39 40 87 0 48-18 87-40 87-22 0-40-39-40-87 0-48 40-87 40-87z m23-58c0 0 56 1 90-32 33-34 48-74 32-90-16-16-56-1-89 33-34 33-33 89-33 89z m-49 49c0 0 1 56-33 90-33 33-73 48-89 32-16-15-1-56 32-89 34-34 90-33 90-33z" horiz-adv-x="1000" />

<glyph glyph-name="healtheducation" unicode="&#xe834;" d="M176 89c-36 0-65 29-65 65 0 35 29 64 65 64 35 0 64-29 64-64 0-36-29-65-64-65z m-130-233c0 16 0 103 0 126 0 46 37 82 83 82 22 0 67 0 89 0 45 0 86-36 86-82 0-23 0-110 0-126h-258z m796 239c36 0 65 29 65 64 0 36-29 64-65 64-35 0-64-28-64-64 0-35 29-64 64-64z m130-239c0 16 0 103 0 126 0 46-38 82-83 82-23 0-67 0-89 0-45 0-86-36-86-82 0-23 0-110 0-126h258z m-463 234c-36 0-65 29-65 64s29 65 65 65c36 0 65-29 65-65 0-35-29-64-65-64z m-157-234l51 139c21 72 81 70 81 70h50c0 0 60 2 80-70l52-139h-314z m157 444v153l-26 25v-152h-383v485h383v-250l26-25v300h-434v-536z m-221 406c19 0 34 16 34 35 0 18-15 34-34 34-19 0-34-16-34-34 0-19 15-35 34-35z m113-142c0 0-28 96-28 96-11 37-43 36-43 36h-84c0 0-31 1-43-36 0 0-28-96-28-96-2-7 2-16 10-18 2 0 3 0 4 0 7 0 12 4 14 10l27 91 0 0 12 0v-103l-47-162c-3-11 3-22 14-25 1-1 3-1 5-1 9 0 17 6 19 14l47 160h16l47-160c2-8 10-14 19-14 2 0 4 0 6 1 10 3 16 14 13 25l-47 161v104l12 0 0 0 27-91c2-6 8-10 14-10 1 0 3 0 4 0 8 2 12 11 10 18z m441 15c-35 0-64 28-64 64 0 35 29 64 64 64 35 0 64-29 64-64 0-36-29-64-64-64z m0-96c0 0 15-2 25 11 9 12 9 52 9 60h-69c0-29 4-50 10-61 7-10 25-10 25-10z m-280-56c-2-4-6-12-6-17 0-15 12-27 27-27h89c10 0 24 4 29 12 19 29 40 59 46 68v-169h224v173c0 45-35 86-77 86 0-21-3-57-15-72-13-16-29-14-29-14v-66c9-3 14-11 14-21 0-12-10-22-22-22-12 0-22 10-22 22 0 10 5 18 13 21v66c0 0-13-1-26 11-16 18-17 68-17 76h-4c-29 0-54-15-69-37l-53-80-81 0-114 114c-4 4-11 4-15 0-5-4-5-11 0-16l108-108z" horiz-adv-x="1016" />

<glyph glyph-name="healthservices" unicode="&#xe835;" d="M341-129h319v319h319v319h-319v319h-319v-319h-319v-319h319z" horiz-adv-x="1000" />

<glyph glyph-name="hearingassistance" unicode="&#xe836;" d="M513 794c174 0 313-143 313-317 0-68-13-113-53-168-53-74-104-117-104-207v-69c0-86-73-151-159-151-86 0-159 68-159 155 0 20 15 38 36 38 31 0 30-40 41-69 14-35 43-55 81-55 49 0 91 36 91 85v76c0 156 160 211 160 366 0 138-112 250-250 250-85 0-145-28-196-96-30-40-44-69-50-119-4-31-5-72-36-72-21 0-36 18-36 39 0 175 146 314 321 314z m-9-95c123 0 229-95 229-218 0-16-11-32-27-32-17 0-21 21-23 37-6 38-9 61-30 93-33 52-81 69-143 69-58 0-100-19-135-66-19-25-31-59-37-90-4-26 1-45-25-45-17 0-26 17-26 33 0 120 97 219 217 219z m-380-490l115-114-29-29-114 115 28 28z m58 58l115-115-29-28-115 114 29 29z m60 60l114-114-28-29-115 115 29 28z m69 68l115-115-29-29-115 115 29 29z m64 60l115-114-29-29-114 115 28 28z m66 72l114-115-28-29-115 115 29 29z m322 253l47-47-30-30-47 47 30 30z m61 61l47-47-31-30-46 47 30 30z" horiz-adv-x="984" />

<glyph glyph-name="hospital" unicode="&#xe837;" d="M315 307v-435h-203v969h203v-367h377v367h203v-969h-203v435h-377z" horiz-adv-x="1000" />

<glyph glyph-name="imagingct" unicode="&#xe838;" d="M861-4c26 31 35 75 20 116l-14 38h83v695h-895v-695h481l53-144c15-41 50-69 90-77l23-76h212l-53 143z m-26 242l-20 54-29 80c-44-17-67-65-51-110l32-86h-686v643h843v-643h-66l-23 62z m-541 438c23 23 51 34 86 34 46 0 80-15 101-46 12-17 19-34 19-52h-58c-3 14-8 24-14 31-10 12-26 18-46 18-21 0-37-9-49-26-12-17-18-41-18-72 0-32 7-55 19-70 13-16 29-24 48-24 20 0 35 7 46 20 6 7 10 18 14 33h58c-5-31-18-55-38-74-21-19-47-29-79-29-39 0-71 13-93 39-23 25-34 61-34 106 0 48 13 86 38 112z m455 29v-49h-83v-229h-59v229h-83v49h225z" horiz-adv-x="1000" />

<glyph glyph-name="i-imagingmri" unicode="&#xe839;" d="M857-7c25 32 34 76 19 117l-13 38h82v695h-894v-696h481l52-144c15-41 50-69 90-76l23-77h212l-52 143z m-27 243l-19 53-29 80c-45-16-67-65-51-109l32-87h-687v644h843v-644h-66l-23 63z m-474 467h84v-278h-55v188c0 5 0 13 1 22 0 10 0 18 0 23l-53-233h-56l-53 233c0-5 0-13 0-23 1-9 1-17 1-22v-188h-55v278h85l51-219 50 219z m315-8c11-4 19-10 27-19 5-7 10-15 14-23 3-9 5-19 5-30 0-13-4-26-10-39-7-12-18-21-33-27 13-5 22-12 27-22 5-9 8-24 8-43v-19c0-12 0-21 1-26 2-7 6-12 11-16v-6h-64c-2 6-3 11-4 14-1 8-2 16-2 24l-1 26c0 18-3 30-9 36-6 6-17 9-33 9h-57v-109h-56v278h133c19-1 33-3 43-8z m-120-41v-74h63c12 0 22 1 28 4 11 5 16 16 16 31 0 17-5 29-16 34-6 4-15 5-26 5h-65z m274-229h-57v278h57v-278z" horiz-adv-x="984" />

<glyph glyph-name="imagingmritwo" unicode="&#xe83a;" d="M861-5c26 32 35 76 20 117l-14 37h83v697h-897v-697h482l53-144c15-41 50-69 90-77l23-76h213l-53 143z m-27 243l-19 53-29 81c-45-17-68-65-51-110l32-87h-688v645h845v-645h-67l-23 63z m-655 439c23 22 51 34 86 34 46 0 80-15 102-46 11-17 18-35 19-52h-59c-3 13-8 23-14 30-10 12-26 18-46 18-21 0-37-8-49-25-12-17-18-42-18-73 0-31 6-55 19-70 13-16 29-23 48-23 20 0 35 6 46 20 6 7 10 18 14 32h58c-5-30-18-55-38-74-21-19-47-29-79-29-40 0-71 13-93 39-23 26-35 61-35 106 0 49 13 86 39 113z m310 29h65l99-279h-63l-18 57h-103l-19-57h-61l100 279z m-4-174h71l-35 110-36-110z m377 174v-50h-83v-229h-59v229h-83v50h225z" horiz-adv-x="1000" />

<glyph glyph-name="imagingpet" unicode="&#xe83b;" d="M857-1c26 31 35 75 20 115l-14 38h82v689h-887v-689h477l52-143c15-41 50-69 89-76l23-76h210l-52 142z m-26 240l-19 53-29 79c-44-16-67-64-51-108l32-86h-680v638h835v-638h-65l-23 62z m-489 306c-16-13-39-20-69-20h-58v-99h-57v276h118c28 0 49-7 66-21 16-15 24-37 24-66 0-33-8-56-24-70z m-44 100c-8 6-18 9-31 9h-52v-81h52c13 0 23 3 31 10 7 6 11 17 11 31 0 14-4 25-11 31z m310 8h-146v-59h134v-47h-134v-71h153v-50h-209v276h202v-49z m260 49v-49h-83v-227h-58v227h-82v49h223z" horiz-adv-x="1016" />

<glyph glyph-name="imagingrootcategory" unicode="&#xe83c;" d="M861-4c26 32 35 75 20 116l-14 38h83v694h-893v-694h480l52-144c15-41 50-69 90-76l25-75 206 0-49 141z m-75 375c-44-16-67-65-51-109l32-86h-684v642h841v-642h-66l-72 195z m-244 76v-50h144c6 0 15-5 15-14 0-85-10-125-55-125-46 0-55 100-104 107v-96h-78v96c-51-4-59-107-107-107-45 0-53 40-53 125 0 9 9 14 15 14h145v50h-150c-9 0-16 7-16 16 0 8 7 15 16 15h150v50h-169c-9 0-16 7-16 16 0 8 7 15 16 15h169v50h-159c-8 0-15 7-15 15 0 9 7 16 15 16h159v50h-124c-9 0-16 7-16 15 0 9 7 16 16 16h124v27h78v-27h124c9 0 16-7 16-16s-7-15-16-15h-124v-50h159c9 0 16-7 16-16 0-8-7-15-16-15h-159v-50h170c8 0 15-7 15-15 0-9-7-16-15-16h-170v-50h150c9 0 16-7 16-15 0-9-7-16-16-16h-150z" horiz-adv-x="1000" />

<glyph glyph-name="immunizations" unicode="&#xe83d;" d="M519 451c30 9 61-7 71-37 10-29-7-61-37-71l-153-49c-18-6-38-2-52 9l-64 50 138-496h-402v630c0 38 30 68 67 68h101c14 0 27-5 38-13 0 0 131-103 168-131l125 40z m-246-190h-61v61h-73v-61h-60v-73h60v-61h73v61h61v73z m-122 324c67 0 121 55 121 122 0 67-54 121-121 121-67 0-121-54-121-121 0-67 54-122 121-122z m714 0c67 0 122 54 122 121 0 67-55 122-122 122-67 0-121-55-121-122 0-67 54-121 121-121z m-37-33c-49 0-72-17-91-46l-12-24-71 21 3 19-170 38-4-21-32 7 5 21-13 3-15-65 13-3 5 22 32-8-5-21 170-38 5 20 69-11-177-341c-14-27-3-60 24-74 28-14 61-2 75 25l148 287h24v-507h174v696h-156z" horiz-adv-x="1000" />

<glyph glyph-name="infectiousdiseases" unicode="&#xe83e;" d="M284 544c54 24 78 87 54 140-24 54-87 77-140 54-54-24-78-87-54-140 24-54 87-78 140-54z m152 117c6 10 3 23-8 29-10 6-23 2-29-8-6-10-2-23 8-29 10-6 23-2 29 8z m197 113c6 11 2 24-8 30-10 5-23 2-29-8-6-10-3-23 8-29 10-6 23-3 29 7z m-66-37c6 10 3 23-8 29-10 6-23 2-29-8-6-10-2-23 8-29 10-6 23-3 29 8z m131 75c6 10 3 23-7 29-11 6-24 3-30-7-5-11-2-24 8-29 10-6 23-3 29 7z m-200-118c8 8 9 21 1 30-8 8-21 9-30 1-9-8-9-21-2-30 8-9 22-9 31-1z m-62-73c6-10 3-23-8-29-10-6-23-2-29 8-6 10-2 23 8 29 10 6 23 2 29-8z m131-75c6-11 3-24-8-30-10-5-23-2-29 8-6 10-2 23 8 29 10 6 23 3 29-7z m293-42c-37 0-236 0-272 0-75 0-142-61-142-136 0-38 0-303 0-329 0-26 20-47 46-47 25 0 46 21 46 47 0 30 0 296 0 296h39v-474h124v128h40v-128h125v474h39c0 0 0-266 0-296 0-26 20-47 46-47 26 0 46 21 46 47 0 26 0 291 0 329 0 75-62 136-137 136z m-223-50c-10-6-23-2-29 8-6 10-3 23 7 29 11 6 24 3 30-8 6-10 2-23-8-29z m66-38c-11-5-24-2-30 8-6 10-2 23 8 29s23 3 29-7c6-11 3-24-7-30z m-205 172c8-7 9-21 1-30-8-8-21-9-30-1-9 8-9 21-2 30 8 9 22 9 31 1z m23 70c10-6 14-19 8-29-6-10-19-14-29-8-10 6-14 19-8 29 6 11 19 14 29 8z m199 89c-58 0-106-48-106-106 0-59 48-106 106-106 59 0 106 47 106 106 0 58-47 106-106 106z m-52-36c6 10 18 14 29 8 10-6 13-19 8-29-6-11-19-14-29-8-11 5-14 18-8 29z m-29-90c-10 6-14 19-8 29 6 11 19 14 29 8 11-6 14-19 8-29-5-10-19-14-29-8z m67-51c-6-10-19-13-29-8-11 6-14 19-8 30 6 10 19 13 29 7 10-5 14-18 8-29z m38 59c-6-10-19-14-29-8-10 6-14 19-8 29 6 11 19 14 29 8 10-6 14-19 8-29z m-159 32c11-3 18-14 16-26-3-11-14-19-26-16-11 2-18 14-16 25 3 12 14 19 26 17z m30-86c11-3 18-14 16-26-3-11-14-19-25-16-12 3-19 14-17 25 3 12 14 19 26 17z m-6 167c11-2 19-14 16-25-2-12-14-19-25-16-12 2-19 14-17 25 3 12 14 19 26 16z m-338-498c8-14 23-24 40-24 20 0 36 12 43 29l81 237c8 24-5 50-29 59-24 8-50-5-59-29l-46-136-50 89c-12 19-30 34-52 42-53 17-109-11-127-63l-60-182c-5-11-7-30-7-40v-365h181v298l50 149 35-64z" horiz-adv-x="1000" />

<glyph glyph-name="information-us" unicode="&#xe83f;" d="M968 351c0-262-213-475-475-475-261 0-474 213-474 475 0 262 212 474 474 474 262 0 475-212 475-474z m-475 368c-203 0-368-165-368-368 0-204 165-369 368-369 204 0 369 165 369 369 0 203-165 368-369 368z m-97-258c0 75 48 101 96 101 29 0 53-2 73-27 45-56-5-111-64-140-41-21-60-56-60-104v-109h108c0 0 0-1 0 64 0 98 63 73 109 135 62 82 48 175-36 242-95 76-204 38-234 17-25-17-114-80-97-217l105 0c0 0 0 13 0 38z m153-427v111h-108v-111h108z" horiz-adv-x="984" />

<glyph glyph-name="inpatient" unicode="&#xe840;" d="M166 292c0 36 30 66 67 66 36 0 66-30 66-66 0-37-30-66-66-66-37 0-67 29-67 66z m640 40c29 0 53-22 53-51l0-140h-531v191l478 0z m-540-191c18 0 33 15 33 33s-15 32-33 32h-94c-18 0-32-14-32-32 0-18 14-33 32-33h94z m625-137v-146h86v462c0 24-19 43-43 43-24 0-43-19-43-43v-212h-775v299c0 24-21 43-45 43v0c-23 0-42-19-42-43v-549h87v146h775z m-274 844c28 0 73-12 98-39l-34-65c-14 19-38 31-64 31-25 0-48-12-63-31l-35 63c29 29 70 41 98 41z m-9-66h19v20h19v19h-19v19h-19v-19h-20v-19h20v-20z m71-92c0-34-27-62-62-62-34 0-62 28-62 62 0 34 28 62 62 62 35 0 62-28 62-62z m-122-80c-43 0-68-36-74-55l-53-174h54l39 133h28l-39-133h211l-39 133h28l40-133h53l-54 174c-5 19-30 54-72 55l-122 0z m-396-40c-76 0-139 62-139 138 0 77 62 139 139 139 76 0 138-62 138-139 0-76-62-138-138-138v0z m0 34c57 0 104 47 104 104 0 58-47 105-104 105-58 0-104-47-104-105 0-57 46-104 104-104v0z m1 86c-4-1-7-1-10 1-3 2-5 4-5 7l0 81c0 5 5 10 10 10 6 0 11-5 11-10v0-63l53 25c5 3 11 1 14-5v0c2-5 0-11-5-14v0l-68-32z" horiz-adv-x="1000" />

<glyph glyph-name="intensivecare" unicode="&#xe841;" d="M986-143h-88v149h-790v-149h-89v561c0 24 19 44 43 44v0c25 0 46-20 46-44v-305h790v216c0 24 20 44 44 44s44-20 44-44l0-472z m-759 511c37 0 67-30 67-68 0-37-30-67-67-67-37 0-68 30-68 67 0 38 30 68 68 68z m67-188c0-19-14-34-33-34h-96c-18 0-33 15-33 34 0 18 15 33 33 33h96c19 0 33-15 33-33z m518 161c30 0 54-23 54-52l0-143h-542v195l488 0z m-321 31v309c0 33-27 60-61 60-33 0-59-27-59-60 0-5-5-10-11-10-5 0-10 5-10 10 0 8-6 14-13 14-7 0-13-6-13-14 0-20 16-37 36-37 21 0 37 17 37 37 0 18 15 33 33 33 19 0 34-15 34-33v-309h27z m-112 94h33c0 0 7 29 7 75 0 46-7 75-7 75h-86c0 0-8-23-8-75 0-52 8-75 8-75h34c0 0 0 0 0 0 0-1 1-57-35-94h24c30 41 30 90 30 94z m240 374v-350h367v350h-367z m32-80c0 26 21 47 46 47h211c26 0 47-21 47-47v-126h-28l-18 47c-1 3-4 5-7 5-3 0-6-2-7-5 0 0-5-14-9-28-8 32-24 97-24 97 0 4-4 6-7 6-4 0-7-3-7-6 0 0-12-108-16-138-6 9-12 18-12 18-2 2-4 4-6 4 0 0-21 0-29 0-3 8-17 47-17 47-1 3-4 5-7 5-3 0-6-2-7-5 0 0-5-14-10-28-8 32-23 97-23 97-1 4-4 6-8 6-3 0-6-3-7-6 0 0-12-108-15-138-7 9-13 18-13 18-1 2-3 4-6 4h-21v126h0z m257-241h-211c-25 0-46 21-46 47v53c5 0 13 0 17 0 4-6 22-32 22-32 1-3 5-4 8-4 3 1 5 4 5 7 0 0 8 71 13 116 9-36 19-80 19-80 1-4 4-6 7-6 3 0 6 2 7 5 0 0 6 17 12 32 6-15 12-33 12-33 1-3 4-5 7-5 0 0 23 0 30 0 3-6 21-32 21-32 2-3 5-4 8-4 3 1 5 4 6 7 0 0 8 71 13 116 8-36 19-80 19-80 1-4 3-6 7-6 3 0 6 2 7 5 0 0 6 17 11 32 6-15 13-33 13-33 1-3 3-5 7-5h33v-53c0-26-21-47-47-47z" horiz-adv-x="1000" />

<glyph glyph-name="internalmedicine" unicode="&#xe842;" d="M494 578c74 0 134 60 134 134 0 74-60 134-134 134-74 0-134-60-134-134 0-74 60-134 134-134z m177-40c-22 0-89 0-158 0v-125l29-8v29c0 19 17 36 49 15 44-29 91-198 40-192-25 3-39 16-67 17-22 1-22 11-22 23 0 13 0 53 0 53v23c-9 2-20 5-29 7v-155c0 0 44 30 75 6 19-15 32-59-29-95-14-9-90-29-114 16h-27c-12 0-22-10-22-22s10-22 22-22h160c25 0 45-21 45-46 0-25-20-46-45-46h-166c-5 0-10-4-10-10 0-5 5-10 10-10h166c25 0 45-21 45-46s-20-46-45-46h-194c-9 0-17 8-17 18 0 10 8 18 17 18h194c5 0 10 4 10 10 0 6-5 10-10 10h-166c-25 0-45 21-45 46 0 25 20 46 45 46h166c5 0 10 5 10 10s-5 11-10 11h-160c-32 0-57 25-57 57 0 32 25 58 57 58h36c0 0 0 0 0 0h12c12 0 12 12 12 12v178c-10-3-22-6-29-8v-20c0 0 0-40 0-53 0-12 0-22-22-23-28-1-42-14-67-17-51-6-4 163 40 192 32 21 49 4 49-15v-31l29 8v127c-67 0-130 0-151 0-95 0-179-77-179-172 0-48 0-383 0-415 0-33 25-59 58-59 32 0 58 26 58 59 0 38 0 374 0 374h49v-453h365v453h49c0 0 0-336 0-374 0-33 26-59 58-59s58 26 58 59c0 32 0 367 0 415 0 95-77 172-172 172z" horiz-adv-x="1000" />

<glyph glyph-name="interpreterservices" unicode="&#xe843;" d="M152 474c29 0 53-24 53-53 0-29-24-52-53-52s-52 23-52 52c0 30 23 53 52 53z m349 293c38 0 69-31 69-69s-31-70-69-70c-38 0-69 31-69 70 0 38 31 69 69 69z m-381-224l11-17c25 16 57 8 73-17l17 11c-22 34-67 45-101 23z m49 81l6-19c28 10 58-5 68-32l19 6c-14 39-55 59-93 45z m65 69l2-20c29 3 56-18 59-47l20 2c-5 40-41 69-81 65z m77 32c29-4 50-30 46-59l20-3c5 40-24 77-64 82l-2-20z m321 25c17-23 12-57-12-74l12-16c33 24 40 69 17 102l-17-12z m82-39c12-27-1-58-28-69l8-19c37 16 54 59 39 96l-19-8z m71-57c5-28-14-56-43-61l4-20c39 7 66 45 59 85l-20-4z m1-121l-1-20c40-2 75 29 77 69l-20 1c-2-29-27-51-56-50z m54-171c-30 0-53 24-53 53 0 29 23 52 53 52 29 0 53-23 53-52 0-29-24-53-53-53z m55-89l20-1 41-141c3-11 15-17 27-13 12 3 19 13 15 27l-41 145c-17 58-66 56-66 56h-103c0 0-49 2-65-56l-42-145c-4-14 3-24 15-27 12-4 24 2 27 13l41 141 20 1-55-189h221l-55 189z m-744 20c19 0 31 7 31 59-19 0-42 0-60 0 0-52 10-59 29-59z m72-24h19c0 0 0-132 0-147 0-13 10-23 23-23 13 0 23 10 23 23 0 13 0 144 0 163 0 37-31 67-68 67-4 0-13 0-24 0 0-51-14-73-36-73v-59c6-3 11-9 11-17 0-10-8-18-19-18-10 0-18 8-18 18 0 8 5 14 11 17v59c-23 0-37 24-37 73-10 0-19 0-23 0-37 0-70-30-70-67 0-19 0-150 0-163 0-13 10-23 23-23 12 0 23 10 23 23 0 15 0 147 0 147h19v-185h143v185h0z m384 245h-18v-545c0-22-17-39-39-39s-39 17-39 39v338h-20v-338c0-22-17-39-39-39s-39 17-39 39v545h-18l0-201c0-16-13-30-29-30s-30 14-30 30v223c0 49 35 76 83 76h164c48 0 83-27 83-76v-223c0-16-13-30-30-30s-29 14-29 30l0 201z" horiz-adv-x="1000" />

<glyph glyph-name="kidney" unicode="&#xe844;" d="M503 575c75 0 136 61 136 136 0 76-61 137-136 137-75 0-136-61-136-137 0-75 61-136 136-136z m180-41c96 0 175-79 175-175 0-49 0-390 0-423 0-33-25-60-58-60-33 0-60 27-60 60 0 38 0 381 0 381h-50v-461h-372v461h-49c0 0 0-343 0-381 0-33-27-60-60-60-33 0-59 27-59 60 0 33 0 374 0 423 0 96 86 175 183 175 46 0 302 0 350 0z m-229-495c-5 5-7 11-7 21 1 9 4 14 9 18 9 8 12 24 12 36 0 25-22 46-49 46-22 0-43-21-50-34-5-10-12-31-13-56 0-23 4-42 9-61 8-21 28-44 54-44 27 0 49 20 49 45 0 4-1 8-2 12-2 5-8 13-12 17z m89-17c-2-4-2-8-2-12 0-25 22-45 48-45 27 0 47 23 54 44 6 19 10 38 9 61 0 25-8 46-13 56-6 13-27 34-50 34-26 0-48-21-48-46 0-12 3-28 12-36 5-4 8-9 9-18 0-10-3-16-7-21-4-4-11-12-12-17z" horiz-adv-x="1000" />

<glyph glyph-name="laboratory" unicode="&#xe845;" d="M591 44l-241 140 24 41 241-139z m247-79c70 66 114 158 114 262 0 127-67 242-171 306l117 202-19 11 29 49-75 44-29-50-19 11-287-496 25-14-35-62 63-36 35 61 25-14 121 208c74-47 121-129 121-220 0-145-118-262-262-262-97 0-211 0-211 0v-99h594v99c0 0-88 0-136 0z m-527 762v79h9l0 19h-88l0-19h11v-79h-66v79h9l0 19h-88l0-19h10v-79h-96v-394h395v394h-96z m62-361h-328v328h63v-252c0-19 16-35 35-35 19 0 34 16 34 35v252h66v-252c0-19 15-35 34-35 19 0 34 16 34 35v252h62v-328h0z" horiz-adv-x="1000" />

<glyph glyph-name="labordelivery" unicode="&#xe846;" d="M502 603c-69 0-126 56-126 124 0 69 57 125 126 125 69 0 125-56 125-125 0-68-56-124-125-124z m340-580c-29-8-57 6-65 32l-96 335-47 0 154-535h-572l153 535-47 0-96-335c-7-26-36-40-64-32-28 8-46 32-36 64l99 345c39 137 154 133 154 133h246c0 0 115 4 154-133l99-345c9-32-8-56-36-64z m-340 235c-103 0-186-83-186-186 0-102 83-185 186-185 102 0 185 83 185 185 0 103-83 186-185 186z m40-141c-23 11-32 37-21 60 10 22 37 31 59 21 22-11 32-37 21-60-11-22-37-31-59-21z m41-62c-4-9-28-59-32-69-14-27-47-39-75-26-9 4-16 11-21 18-9 11-15 41-15 41-9-6-33-21-43-28-9-7-21-4-27 4-7 9-4 22 4 28 14 10 54 36 54 36 11 9 28 6 36-6l17-34 26 54-23 6c-5 2-9 5-12 10l-22 44c-5 9-1 21 8 25 9 5 21 2 26-8 0 0 13-26 19-36 12-4 63-18 63-18 2-1 5-3 7-4 12-8 17-24 10-37z" horiz-adv-x="1000" />

<glyph glyph-name="mammography" unicode="&#xe847;" d="M446 269c-36 0-66-30-66-66 0-37 30-67 66-67 37 0 66 30 66 67 0 36-29 66-66 66z m152 0c-37 0-66-30-66-66 0-37 29-67 66-67 36 0 65 30 65 67 0 36-29 66-65 66z m-278-26l-46-160h45l44 160z m-310 80v-240h151l73 240z m506 139c81 0 125 56 125 126 0 70-56 127-125 127-70 0-126-57-126-127 0-70 56-126 126-126z m167-191c-4-10-5-21 2-45l41-143h180v-228h80v984h-80v-516h-197l-26-52z m-429-416h536l-64 228h-408z m584 726l-53 215c-7 29-37 47-66 40-28-7-46-37-39-66l48-194-84-148h-245c-87 0-147-62-163-98l-2-7h475l123 218c7 12 9 27 6 40z m-671-728c-5 0-10 1-15 2-29 9-45 39-37 68l46 160h113l-55-191c-7-23-29-39-52-39v0z" horiz-adv-x="1000" />

<glyph glyph-name="medicallibrary" unicode="&#xe848;" d="M236 720v105h-104v-105h-104v-104h104v-104h104v104h104v104z m329-323c72 0 131 58 131 130 0 72-59 130-131 130-72 0-130-58-130-130 0-72 58-130 130-130z m-204-540v116l-116-32c-8-4-18-5-27-5-41 0-75 33-75 74 0 15 5 30 13 41l186 256c20 27 49 58 108 58h225c59 0 88-31 108-58l186-256c8-11 13-26 13-41 0-41-34-74-75-74-9 0-19 1-27 5l-116 32v-116h-403z m202 81v0l150 50-4 1c-103 31-63 168 41 137l14-5v155l-201-66-202 66v-155l14 5c104 31 144-106 41-137l-4-1 151-50z" horiz-adv-x="1000" />

<glyph glyph-name="medicalrecords" unicode="&#xe849;" d="M48 757v-207h-31c-5 0-10 5-10 11v267c0 9 7 16 16 16h136c10 0 16-7 16-16v-16h211c6 0 11-5 11-11v-60h-180v16c0 9-7 16-16 16h-137c-9 0-16-7-16-16z m432-332c0-6-5-10-11-10h-368c-6 0-11 4-11 10v267c0 9 7 16 16 16h136c10 0 16-7 16-16v-16h211c6 0 11-5 11-10v-241h0z m-164 152v63h-62v-63h-63v-63h63v-63h62v63h63v63h-63z m240 102v-805h442v805h-442z m414-692h-387v305h387v-305z m0 359h-387v304h387v-304z m-28 278h-331v-252h331v252z m-112-84h-109c-8 0-15 6-15 15 0 8 7 15 15 15h109c9 0 16-7 16-15 0-9-7-15-16-15z m112-274h-331v-252h331v252z m-112-85h-109c-8 0-15 7-15 15 0 9 7 16 15 16h109c9 0 16-7 16-16 0-8-7-15-16-15z" horiz-adv-x="1000" />

<glyph glyph-name="mentalhealth" unicode="&#xe84a;" d="M773 173v-317h-398v114h-59c-81 0-147 66-147 148v104h-50c-17 0-30 14-30 30 0 4 0 8 2 12l78 196c0 0 8 82 15 113 33 140 189 267 359 267 206 0 373-167 373-373 0-119-56-226-143-294z m-512 296c-23 0-42-18-42-41 0-24 19-42 42-42 23 0 41 19 41 42 0 23-18 41-41 41z m361 91c0-22 18-40 40-40 21 0 39 18 39 40 0 22-18 39-39 39-22 0-40-17-40-39z m-297 43c0-22 18-40 40-40 22 0 39 18 39 40 0 21-17 39-39 39-22 0-40-18-40-39z m467-87l57 10v55l-55 9c-3 10-6 20-11 29l33 47-38 39-46-32c-7 4-14 8-22 10-2 1-4 2-6 2l-10 58h-55l-9-55c-11-3-20-7-29-12l-48 34-39-39 33-46c-4-7-8-14-11-21 0-3-1-5-2-7l-47-8v26l-36 6c-2 7-4 13-7 18l22 32-25 25-31-21c-4 2-8 5-13 7-2 0-3 0-4 1l-7 37h-36l-6-36c-6-1-12-4-18-7l-31 22-26-25 22-30c-3-5-5-9-7-14-1-2-1-3-1-4l-38-7v-36l36-6c2-6 4-12 7-18l-22-31 26-26 30 22c4-3 9-5 14-7 1-1 2-1 4-1l6-38 36 0 6 36c7 2 13 4 18 7l32-22 25 26-21 30c2 4 5 9 7 14 0 1 0 2 1 4l27 4v-45l55-9c3-10 7-20 11-29l-33-47 39-39 46 32c6-4 13-7 21-10 2-1 4-2 7-2l10-57h47l-4-23c-7-2-13-5-19-8l-23 16-18-18 16-22c-3-4-5-8-7-13-1-2-1-4-2-6l-27-5v-25l26-5c2-6 4-13 8-19l-16-23 18-18 21 16c5-3 9-5 14-7 2-1 4-1 6-2l4-27h26l4 26c7 2 14 4 20 8l23-16 18 18-16 21c3 5 5 9 7 14 1 2 1 4 2 6l27 5v25l-26 4c-2 7-5 14-8 20l16 23-18 18-22-16c-4 3-8 5-13 7-2 1-4 1-6 2l-5 27h-18l9 52c10 2 19 6 29 11l47-34 39 39-33 46c4 7 8 14 11 22 1 2 1 4 2 6z m-140-240c0-21 18-39 40-39 22 0 39 17 39 39 0 22-17 40-39 40-22 0-40-18-40-40z" horiz-adv-x="1000" />

<glyph glyph-name="mripet" unicode="&#xe84b;" d="M13 286h626v-59h-626v59z m491 123c0 41 34 74 75 74 41 0 74-33 74-74 0-41-33-74-74-74-41 0-75 33-75 74z m-95 77h-249l-148-23v-128l75 0c-6 9-9 21-9 33 0 34 28 62 62 62h137l110 24 6-30-113-24h-140c-18 0-32-14-32-32 0-18 14-33 32-33l270 0c42 0 75 34 75 75 0 42-34 76-76 76z m129-417c166 0 301 135 301 301 0 166-135 301-301 301-108 0-203-58-256-144h126c35 29 81 47 131 47 113 0 204-91 204-204 0-113-91-204-204-204-32 0-62 7-89 20h-149c54-71 140-117 237-117z m0 767c-206 0-380-133-441-318l57 9 93 0c56 103 165 174 291 174 183 0 331-149 331-331 0-183-148-331-331-331-115 0-215 59-275 147h-152c72-165 236-280 427-280 257 0 465 208 465 465 0 257-208 465-465 465z m106-105c-2-7-8-12-15-12-1 0-2 1-3 1-57 14-117 14-174 0-8-2-16 3-18 11-2 8 3 16 11 18 61 15 126 15 188 0 8-2 13-10 11-18z" horiz-adv-x="1000" />

<glyph glyph-name="neurology" unicode="&#xe84c;" d="M538 838c-167 0-321-126-353-264-7-31-15-111-15-111l-77-194c-2-3-2-7-2-11 0-17 13-30 29-30h50v-103c0-80 65-145 145-145h57v-113h215v50h87v-50h91v313c86 67 141 172 141 289 0 204-165 369-368 369z m-278-448c-23 0-41 18-41 41 0 23 18 41 41 41 23 0 41-18 41-41 0-23-18-41-41-41z m327-271h87v-47h-87v47z m0 67h87v-47h-87v47z m0-134h87v-47h-87v47z m0-67h87v-48h-87v48z m0 268h88c0-3-1-6-1-10v-37h-87l0 47z m242 273c0-25-10-48-26-65-3-36-26-66-57-80v0c-39-23-62-61-69-107h-36v107c0 33 11 54 33 67 8 5 15 10 21 16 17-6 31-17 40-33 2-4 6-5 9-5 2 0 3 0 5 1 5 3 7 9 4 13h0c-11 19-26 32-44 40 9 14 14 31 14 51 0 0 0 0 0 0 0 9-1 18-4 27 21 4 40 14 53 29 4 4 4 11 0 14-5 4-11 4-15 0-11-13-27-22-45-24-15 27-42 46-74 49 2 17 10 33 22 44 4 4 4 10 0 14-4 4-11 4-15 0-14-15-24-34-27-57-37 5-66 37-66 75 0 6-4 10-10 10-5 0-10-4-10-10 0-6 1-12 2-19-14-12-32-18-49-18-9 0-18 2-26 5 0 0 0 0 0 0-10 3-19 9-28 17-3 4-10 4-14 0-4-4-4-10 0-14 9-8 18-15 28-19-2-25-17-46-37-59-12 18-29 32-51 39-5 2-11-1-13-6-1-6 2-11 7-13 16-5 29-15 38-27-6-2-12-3-19-3 0 0 0 0 0 0h-1c-26 0-50-10-67-27-4-4-4-10 0-14 2-2 4-3 7-3 2 0 5 1 7 3 14 13 32 21 53 21h1c48 0 88 36 94 82 7-1 14-2 21-2 19 0 39 6 56 18 6-14 15-26 27-35-12-15-19-32-21-50-5 1-10 1-15 1-15 0-31-3-45-11-5-2-7-9-4-13 2-4 5-6 9-6 2 0 3 1 4 1 12 6 24 9 36 9 5 0 10 0 15-1 3-21 11-40 26-56 2-2 5-3 7-3 3 0 5 1 7 3 5 3 5 10 1 14h0c-14 14-21 32-21 50 0 0 0 0 0 1 0 0 0 0 0 1 0 17 6 35 18 49 13-6 27-10 42-10 0 0 1 0 1 0 0 0 0 0 0 0 41 0 75-34 75-75-8 2-16 3-24 3-12 0-24-2-36-7-5-2-7-8-5-13 2-5 7-8 13-6 9 4 18 6 28 6 7 0 15-1 22-3-3-12-7-21-15-29 0 0-1-1-1-1-6-6-13-11-21-16-29-17-43-48-43-85v-107h-34v101c0 38-23 73-53 86-14 5-29 14-39 26-16-10-34-16-54-16-19 0-38 6-53 16-15-10-33-15-53-15-53 0-97 43-97 96 0 40 25 75 59 89 10 43 47 75 93 75 2 0 4 0 7 0 17 25 46 41 78 41 16 0 32-4 45-11 15 10 33 16 52 16 25 0 48-10 65-26 7 2 14 3 22 3 38 0 71-23 86-56 39-12 68-48 68-91 0-8-2-17-4-25 12-16 20-36 20-57z" horiz-adv-x="1000" />

<glyph glyph-name="nosmoking" unicode="&#xe84d;" d="M501 560c11-10 29-22 55-25-4-19-1-39 8-56 12-21 34-34 58-34h79c23 0 50-7 50-42v-40h29v40c0 44-30 72-79 72h-79c-18 0-27 10-32 18-8 15-8 35 0 49 2 4 2 10 0 15-3 5-8 7-14 7-22-1-41 5-54 17-12 11-19 26-19 42 0 20 12 59 57 60v-35h29v6c42-1 72-29 72-67 0-15-7-33-17-48-3-5-4-11-1-16 2-4 7-8 13-8h47c60 0 93-50 93-98v-54h30v54c0 63-46 128-123 128h-22c6 14 9 28 9 42 0 55-43 96-101 97v37h-29v-9c-57-1-86-45-86-89 0-24 10-47 27-63z m250-212h29v-89h-29v89z m46 0h29v-89h-29v89z m-288 502c-270 0-491-220-491-491 0-270 221-491 491-491 271 0 491 221 491 491 0 271-220 491-491 491z m382-491c0-83-27-161-73-223l-123 123h39v88h-127l-321 321c62 46 140 73 223 73 211 0 382-172 382-382z m-763 0c0 83 26 159 71 222l234-234h-249v-88h337l210-210c-63-45-139-71-222-71-210 0-381 171-381 381z" horiz-adv-x="1000" />

<glyph glyph-name="nursery" unicode="&#xe84e;" d="M643 706c0-77-62-139-138-139s-139 62-139 139c0 76 62 138 139 138 76 0 138-62 138-138z m-139-428h-146v106l-112-113c-50-50-119 14-68 65l185 186c15 15 31 24 57 24h167c26 0 43-9 59-24l187-188c48-48-22-113-68-65l-115 115v-106l-146 0z m145-55l-110-110 81-80-83-83c-49-49 19-119 69-68l131 136c28 29 36 81 6 112 0 0-94 93-94 93z m-291 0l110-110-81-80 83-83c49-49-19-119-69-68l-131 136c-28 29-36 81-6 112 1 0 94 93 94 93z" horiz-adv-x="1000" />

<glyph glyph-name="nutrition" unicode="&#xe84f;" d="M120 206c2 77-39 106-90 125-17-65 30-120 90-125z m12 343c32 69 5 113-34 150-41-53-20-122 34-150z m18-193c-2 76 39 105 90 124 17-65-30-120-90-124z m0-119c-2 77 39 106 90 125 17-66-30-120-90-125z m0 237c-2 76 39 105 90 124 17-65-30-120-90-124z m-30-149c2 76-39 105-90 124-17-65 30-120 90-124z m0 118c2 77-39 106-90 125-17-66 30-121 90-125z m575-579h-411l205 357 206-357z m-330 48h248l-124 214-124-214z m-305 195l871 237-13 48-871-237z m615 733c0 0 6-125 116-115 0 0 13 105-116 115z m115-408c-12-17-31-27-52-27-18 0-35 8-47 20-23 25-54 83-54 83-17 35-26 62-26 90 0 58 47 108 105 108 29 0 55-11 74-30 19 19 45 30 74 30 58 0 105-50 105-108 0-28-9-55-26-90 0 0-31-58-55-83-11-12-28-20-46-20-21 0-41 10-52 27z" horiz-adv-x="1000" />

<glyph glyph-name="oncology" unicode="&#xe850;" d="M503 834c-174 0-315-142-315-315 0-174 141-316 315-316 173 0 315 142 315 316 0 173-142 315-315 315z m0-601c-158 0-286 128-286 286 0 157 128 286 286 286 157 0 286-129 286-286 0-158-129-286-286-286z m-163 306c13 0 46 0 60 0 0 14 0 48 0 62-14 0-47 0-60 0 0-14 0-48 0-62z m163 227c-137 0-248-111-248-248 0-136 111-248 248-248 137 0 248 112 248 248 0 137-111 248-248 248z m-185-248v104h104v-104h-104z m107-191c-28 0-51 23-51 51 0 29 23 52 51 52 28 0 51-23 51-52 0-28-23-51-51-51z m62 114c-28 0-51 23-51 51 0 29 23 52 51 52 29 0 52-23 52-52s-23-51-52-51z m36 195c-30 0-54 24-54 54 0 30 24 54 54 54 30 0 54-24 54-54 0-30-24-54-54-54z m90-276c-28 0-51 23-51 51 0 29 23 52 51 52 28 0 51-23 51-52 0-28-23-51-51-51z m11 151c-28 0-51 23-51 52 0 28 23 51 51 51 28 0 51-23 51-51 0-29-23-52-51-52z m-510-216v198c0 28-23 51-51 51-28 0-51-23-51-51v-272c0-37 13-74 38-102l169-180c17-16 21-30 21-51v-33h184l0 78c0 30 3 70-34 109l-215 215c-8 8-18 12-29 12-22 0-40-18-40-41 0-10 3-19 9-26l104-111c7-8 18-23 24-41 3-10 4-19 4-30h-34c0 8 0 14-2 20-3 10-10 20-15 26l-105 115c-13 13-20 31-20 49 0 27 16 52 43 65z m777 0v198c0 28 23 51 51 51 29 0 51-23 51-51v-272c0-37-13-74-37-102l-170-180c-17-16-21-30-21-51v-33h-184l0 78c0 30-3 70 34 109l215 215c8 8 18 12 29 12 22 0 41-18 41-41 0-10-4-19-10-26l-104-111c-7-8-18-23-24-41-3-10-3-19-4-30h34c0 8 0 14 2 20 3 10 10 20 15 26l105 115c13 13 21 31 21 49 0 27-17 52-44 65z" horiz-adv-x="1000" />

<glyph glyph-name="ophthalmology" unicode="&#xe851;" d="M498 65c-194 0-374 97-481 259l-5 9 5 8c107 162 287 259 481 259 194 0 374-97 481-259l5-8-5-9c-107-162-287-259-481-259v0z m2 123c39 0 75 15 103 43 27 27 42 63 42 102s-15 74-42 102c-28 27-64 42-103 42-38 0-74-15-102-42-27-28-42-64-42-102 0-80 65-145 144-145z m426 145c-77 107-190 180-316 207 74-39 125-117 125-207 0-62-25-121-69-165-18-18-38-32-59-43 127 26 241 100 319 208z m-527-210c-23 11-45 26-63 45-45 44-69 103-69 165 0 63 24 121 69 165 17 18 37 32 59 43-130-25-246-99-325-208 80-111 197-185 329-210z m51 202c27 0 48 21 48 47s-21 48-48 48c-26 0-47-21-47-48 0-26 21-47 47-47z" horiz-adv-x="1000" />

<glyph glyph-name="outpatient" unicode="&#xe852;" d="M467 677c45-4 84 30 88 75 4 45-30 84-75 88-45 3-84-30-88-75-3-45 30-84 75-88z m23-163c25-5 44-28 44-55 0-30-24-55-55-55h-179c-19 0-34 16-34 35 0 5 0 9 2 14l19 45 215 154h-102c-39 1-67-13-83-44-11-21-68-148-68-148-2-7-4-14-4-21 0-30 25-55 56-55h69l-20-135-109-313c-9-28 6-58 34-67 27-9 57 6 66 34l125 353c24-40 73-110 81-124 2-22 19-218 19-218 3-29 28-50 57-48 29 3 51 29 48 58l-20 230c-1 8-4 16-8 23l-90 145 15 182c0 0 21-72 22-77 5-15 15-26 26-34 6-5 110-76 110-76 6-3 11-5 17-6 20-1 38 14 40 34 1 13-5 25-15 32 0 0-104 72-108 75-3 3-6 7-7 9l-41 149c-7 22-29 42-58 42h-12l-52-139z m-11-90c19 0 35 16 35 35 0 18-14 33-31 35l-26-70 22 0z" horiz-adv-x="1000" />

<glyph glyph-name="pediatrics" unicode="&#xe853;" d="M419 608c14 0 25 10 25 24 0 14-11 25-25 25-13 0-24-11-24-25 0-14 11-24 24-24z m41-89c-17 0-26 17-26 17-4 7-13 10-20 6-7-4-10-13-6-20 0-1 17-33 52-33 14 0 25 3 34 8 9-6 21-9 34-9 33 0 48 33 48 35 1 2 2 4 2 6 0 6-4 11-9 14-4 1-8 1-12 0-3-1-6-4-8-8 0 0-8-17-21-17-11 0-16 3-18 5 0 3 0 18 0 25 10 2 18 11 18 21 0 13-10 23-22 23l-21 0c-12 0-23-10-23-23 0-10 8-20 18-22 0-6 0-20 0-23-2-2-8-5-20-5z m-146 318c76 4 90-52 90-52s36 22 90 22c55 0 90-22 90-22s15 56 91 52c44-2 80-39 80-83 0-41-27-97-72-98l-5 0c1-8 1-29 1-34 0-102-83-185-185-185-101 0-184 83-184 185 0 5 0 26 1 34l-5 0c-45 1-72 57-72 98 0 44 36 81 80 83z m80-641v73h65v65h73v-65h65v-73h-65v-65h-73v65l-65 0z m-235 9c-4 82 40 151 84 207l6 8c14 19 23 32 67 29 33-2 66-27 66-70 0 0 0 0 0 0 0-26-17-49-34-74-22-29-47-63-47-108 0-14 3-24 6-33 3-10 5-19 5-30 0-40-33-72-74-72-49 0-76 48-79 143z m215-342c-54 0-98 44-98 98 0 54 44 98 98 98 55 0 99-44 99-98 0-54-44-98-99-98z m242 0c-54 0-98 44-98 98 0 54 44 98 98 98 54 0 98-44 98-98 0-54-44-98-98-98z m135 199c-41 0-75 32-75 72 0 11 3 20 6 30 3 9 5 19 5 32 0 46-24 80-46 109-18 25-34 48-34 74 0 0 0 0 0 0 0 43 33 67 66 70 43 3 53-10 67-29l6-8c43-56 87-125 84-207-4-95-30-143-79-143z m-181 546c13 0 24 10 24 24 0 14-11 25-24 25-14 0-25-11-25-25 0-14 11-24 25-24z" horiz-adv-x="1000" />

<glyph glyph-name="pathology" unicode="&#xe854;" d="M603 22l-227 132 22 39 227-132z m232-74c65 62 107 149 107 246 0 120-63 227-161 288l110 190-18 10 27 47-70 40-27-46-19 10-269-466 24-14-34-58 59-34 34 58 23-14 114 196c69-44 113-121 113-207 0-136-110-246-246-246-90 0-198 0-198 0v-93h558v93c0 0-82 0-127 0z m-581 884c-126 0-228-102-228-228 0-126 102-229 228-229 126 0 229 103 229 229 0 126-103 228-229 228z m0-435c-114 0-207 93-207 207 0 114 93 207 207 207 114 0 207-93 207-207 0-114-93-207-207-207z m-118 222c10 0 34 0 44 0 0 10 0 34 0 44-10 0-34 0-44 0 0-10 0-34 0-44z m118 164c-99 0-179-80-179-179 0-99 80-180 179-180 99 0 180 81 180 180 0 99-81 179-180 179z m-133-180v76h75v-76h-75z m77-138c-21 0-37 17-37 37 0 21 16 37 37 37 21 0 37-16 37-37 0-20-16-37-37-37z m45 83c-21 0-37 16-37 37 0 20 16 37 37 37 21 0 37-17 37-37 0-21-16-37-37-37z m26 141c-21 0-39 17-39 39 0 22 18 39 39 39 22 0 39-17 39-39 0-22-17-39-39-39z m65-200c-20 0-37 17-37 37 0 21 17 37 37 37 21 0 37-16 37-37 0-20-16-37-37-37z m8 109c-21 0-37 17-37 38 0 20 16 37 37 37 21 0 37-17 37-37 0-21-16-38-37-38z" horiz-adv-x="984" />

<glyph glyph-name="physicaltherapy" unicode="&#xe855;" d="M482 550c51 0 92 41 92 92 0 50-41 91-92 91-51 0-92-41-92-91 0-51 41-92 92-92z m280-622c0 0-715 0-734 0-20 0-18-16-18-16v-27c0 0-2-35 34-35 28 0 919 0 919 0 36 0 34 34 34 34v75c0 0-3 24-31 24h-89c-31 0-56-55-115-55z m72 166c0-45 37-82 83-82 45 0 83 37 83 82 0 46-38 83-83 83-46 0-83-37-83-83z m-271 158c-6-16-18-30-36-37l-74-27 27-27h125l0 191-42-99c0 0 0 0-1-1z m179-136h-258l-62 60-44-16c-32-11-71 6-83 38-7 20-6 42 6 58-5 1-156 0-156 0-26 0-46-20-46-45 0-25 20-45 46-45h153l61-92-315-25c-20-5-35-23-35-45 0-25 21-45 46-45l353 0c-6 10-10 21-10 34 0 36 29 65 65 65h142l114 24 6-30-117-25h-145c-19 0-34-15-34-34 0-19 15-34 34-34l279 0c43 0 78 35 78 78 0 44-35 79-78 79z m-369 73c-18-8-40 0-48 18-8 19 1 40 19 48l131 49 41 97-27 10-34-83-100-37v101l-98-106-110 0c0 0 193 212 199 218 8 8 27 21 61 21h124c71 0 84-70 70-106l-65-158c-4-9-11-16-21-20l-142-52z" horiz-adv-x="1000" />

<glyph glyph-name="registration" unicode="&#xe856;" d="M480 347c-19-17-165-159-165-159l39-38c0 0 130 120 150 138 4 4 13 13 28 13h443v61h-459c-13 0-26-5-36-15z m262 334c52 0 81 36 81 80 0 45-36 81-81 81-44 0-80-36-80-81 0-44 36-80 80-80z m-119-138h27l-39-142h263l-40 142h27l41-142h70l-56 188c-7 26-40 72-97 72h-153c-57 0-90-46-97-72l-56-188h69l41 142z m-228-134l-70 131c0 0-4 7-12 3-7-3-4-11-4-11l24-45 14-28-17 8c-30 13-46 19-53 22-1 0-7 4-9 10-8 17-41 102-49 120-6 16-22 38-54 46-36 9-73-14-82-50l-50-210c-4-17-12-63-12-82 0-20 0-411 0-411 1-34 26-62 60-62 35 0 58 28 58 63 0 0 0 223 0 347l53 225c7-15 14-34 17-38 6-11 12-18 24-24 0 0 69-29 96-41 16-6 34-1 44 12l4 8 1-2c0 0 8-14 20-15 3 11-3 24-3 24z m-107 353c0-44-36-80-80-80-45 0-81 36-81 80 0 44 36 80 81 80 44 0 80-36 80-80z m36-524l157 145-21 22-156-145z" horiz-adv-x="1000" />

<glyph glyph-name="radiology" unicode="&#xe857;" d="M790-35c0-26-21-46-46-46-26 0-47 20-47 46v41h93l0-41z m-123-111h-133l0 66h-44l0-66h-133v152h310z m-341 111c0-26-21-46-47-46-26 0-47 20-47 46v41h94v-41z m185 874c67 0 121-54 121-121 0-66-54-120-121-120-66 0-120 54-120 120 0 67 54 121 120 121z m344-786h-687v401h687v-401z m-108 368h-469v-335h469v335z m-213-198v-30h86c4 0 9-3 9-8 0-50-6-74-33-74-27 0-33 59-62 63 0 0 0-44 0-57h-46c0 13 0 57 0 57-30-2-35-63-64-63-26 0-31 24-31 74 0 5 5 8 9 8h86v30h-89c-5 0-9 4-9 9 0 5 4 10 9 10h89v29h-100c-5 0-10 4-10 9 0 5 5 10 10 10h100v29h-94c-5 0-9 4-9 9 0 5 4 10 9 10h94v29h-74c-5 0-9 4-9 9 0 6 4 10 9 10h74v16h46v-16h74c5 0 9-4 9-10 0-5-4-9-9-9h-74v-29h95c5 0 9-5 9-10 0-5-4-9-9-9h-95v-29h101c5 0 9-5 9-10 0-5-4-9-9-9h-101v-29h90c5 0 9-5 9-10 0-5-4-9-9-9l-90 0z m118 345h-277c-50 0-97-27-123-67h519c-25 40-69 67-119 67z" horiz-adv-x="1000" />

<glyph glyph-name="respiratory" unicode="&#xe858;" d="M725 367h-113v132c45 35 74 89 74 151 0 105-86 191-192 191-87 0-167-65-184-137-4-16-8-58-8-58l-40-101c-1-1-1-3-1-6 0-8 7-15 15-15 5 9 14 14 24 12 12-2 20-14 18-26-2-8-8-14-16-17v-23c0-41 34-75 76-75h30v-28h-122c-141 0-233-103-233-209v-294l155 0v255h44v-255l494 0v255h45v-255l151 0 1 322c0 80-80 181-218 181z m-376 199c-4-3-9-5-14-5-7 0-13 3-17 9-4 4-6 10-5 16 1 6 4 11 9 14 9 8 23 6 30-3 4-5 6-11 5-17-1-5-4-11-8-14z m65 15v0l-5 0c-12 1-21 12-20 24 1 11 11 20 22 20l2 0c6-1 11-3 15-8 4-4 6-10 5-16-1-10-9-19-19-20z m48-28c-4 5-5 11-4 17 1 6 4 11 9 14 10 7 24 4 31-5 7-10 4-24-5-31-4-3-9-4-13-4-7 0-14 3-18 9z m38-166c-12 0-22 9-22 21 0 13 10 22 22 22 12 0 22-9 22-22 0-12-10-21-22-21z m0 80c-12 0-22 10-22 22 0 12 10 22 22 22 12 0 22-10 22-22 0-12-10-22-22-22z m92-192c80 3 126-177 99-344-17-72-59 1-96 8-42 7-65 11-67 33-7 79 23 302 64 303z m-121-302c-2-22-25-27-66-34-38-6-82-83-96-8-28 168 18 348 98 345 41-2 71-225 64-303z m58 258c-8 0-16 4-20 11-5 11-1 24 10 30 10 5 24 1 29-9 3-5 4-11 2-17-2-6-6-10-11-13-3-2-7-3-10-3v0z m-29 75c-10 0-19 7-22 17-1 5 0 11 3 16 3 5 8 9 14 10 11 3 23-4 26-16 3-12-4-24-16-27-2 0-3 0-5 0v0z m-29-75c-4 0-7 0-11 2-10 6-14 19-9 30 6 10 20 14 30 9 5-3 9-7 11-13 2-6 1-11-2-17-3-7-11-11-19-11v0z m165-287c8 0 15 4 19 11 7 10 3 24-7 30-10 6-24 2-30-8-3-5-4-10-3-16 2-6 5-11 10-14 4-2 8-3 11-3v0z m23 77c12 0 22 9 22 21 1 12-9 22-22 23-12 0-21-10-22-21 0-6 2-12 6-16 4-5 10-7 16-7h0v0z m-16 78c3 0 7 0 10 2 10 5 15 19 9 29-5 11-18 16-29 10-5-2-9-7-11-12-2-6-2-12 1-17 4-8 11-12 20-12v0z m-52 60c7 0 14 4 18 10 7 10 4 23-6 30-9 7-23 5-30-5-7-10-5-24 5-31 4-2 8-4 13-4v0z m-228-215c4 0 8 1 12 3 4 3 8 8 10 14 1 5 0 11-3 16-6 10-20 14-30 8-5-3-9-8-10-14-2-5-1-11 2-16 4-7 12-11 19-11v0z m-23 77h1c12 0 22 10 21 23 0 11-10 21-23 21-5-1-11-3-15-8-4-4-6-9-6-15 1-12 10-21 22-21v0z m17 78c8 0 16 4 20 12 2 5 3 11 1 17s-6 10-11 12c-11 6-25 1-30-10-3-5-3-11-1-16 2-6 6-10 11-13 3-2 6-2 10-2v0z m52 60c4 0 9 2 13 4 9 7 12 21 5 31-7 10-21 12-31 5-5-3-8-8-9-14-1-6 0-12 4-16 4-6 11-10 18-10v0z" horiz-adv-x="1000" />

<glyph glyph-name="pharmacy" unicode="&#xe859;" d="M645 355h-35l-36-67-49 89c25 15 37 43 37 78 0 54-26 92-86 92h-100v-315h50v130h44c4 0 7 1 11 1l67-122-56-100h35l38 68 38-68h51l-63 115 54 99z m-183 45h-36v109h33c40 0 53-21 53-55 0-39-23-54-50-54z m-174-517c0-18 15-33 34-33h378c19 0 34 15 34 33v762h-446v-762z m44 712h358v-493h-358v493z m-66 82h490c10 0 18 8 18 18v127c0 9-8 17-18 17h-490c-10 0-18-8-18-17v-127c0-10 8-18 18-18z m444 139h24v-116h-24v116z m-54 0h24v-116h-24v116z m-54 0h24v-116h-24v116z" horiz-adv-x="1000" />
</font>
</defs>
</svg>
