<?xml version="1.0" standalone="no"?>
<!DOCTYPE svg PUBLIC "-//W3C//DTD SVG 20010904//EN"
 "http://www.w3.org/TR/2001/REC-SVG-20010904/DTD/svg10.dtd">
<svg version="1.0" xmlns="http://www.w3.org/2000/svg"
 width="225.000000pt" height="225.000000pt" viewBox="0 0 225.000000 225.000000"
 preserveAspectRatio="xMidYMid meet">

<g transform="translate(0.000000,225.000000) scale(0.100000,-0.100000)"
fill="#000000" stroke="none">
<path d="M1045 2236 c-16 -8 -254 -238 -527 -512 -544 -546 -516 -513 -506
-624 9 -94 85 -165 187 -177 l50 -6 3 -378 3 -377 30 -43 c17 -24 50 -57 74
-74 l43 -30 235 -3 c210 -3 237 -1 254 14 18 16 19 36 19 306 0 317 3 333 60
363 42 22 279 21 321 -1 55 -28 59 -54 59 -367 0 -262 1 -285 18 -300 16 -15
48 -17 241 -17 163 0 230 4 254 13 52 22 98 68 123 122 24 50 24 53 24 411 l0
361 52 7 c61 8 94 24 129 63 59 63 75 145 44 221 -19 46 -962 994 -1017 1023
-44 22 -128 25 -173 5z m597 -594 c453 -452 478 -479 478 -513 0 -56 -25 -72
-126 -79 -69 -4 -89 -9 -100 -25 -11 -15 -14 -89 -14 -411 0 -276 -3 -401 -12
-418 -24 -53 -49 -61 -225 -64 l-162 -4 -3 264 c-3 226 -6 269 -21 303 -25 55
-63 93 -122 121 -46 22 -63 24 -199 24 -84 0 -165 -5 -187 -12 -51 -15 -114
-69 -142 -122 -21 -39 -22 -55 -25 -308 l-3 -268 -138 0 c-169 0 -194 5 -232
42 l-29 30 0 393 c0 280 -3 402 -12 420 -13 29 -25 33 -121 38 -79 4 -110 26
-110 77 0 28 50 82 479 511 449 449 481 479 514 479 33 0 65 -30 512 -478z"/>
</g>
</svg>
